<mxfile host="app.diagrams.net" agent="Mozilla/5.0 (Windows NT 10.0; Win64; x64) AppleWebKit/537.36 (KHTML, like Gecko) Chrome/129.0.0.0 Safari/537.36" version="28.2.7" pages="7">
  <diagram name="ActivityDiagram_plan" id="e7e014a7-5840-1c2e-5031-d8a46d1fe8dd">
    <mxGraphModel dx="1489" dy="1579" grid="1" gridSize="10" guides="1" tooltips="1" connect="1" arrows="1" fold="1" page="1" pageScale="1" pageWidth="1169" pageHeight="826" background="none" math="0" shadow="0">
      <root>
        <mxCell id="0" />
        <mxCell id="1" parent="0" />
        <mxCell id="-gmBfWTodBVbKLzpmrSE-76" value="BUDGET PLAN PROCESS" style="swimlane;childLayout=stackLayout;resizeParent=1;resizeParentMax=0;horizontal=1;startSize=20;horizontalStack=0;html=1;" vertex="1" parent="1">
          <mxGeometry x="60" y="-680" width="970" height="370" as="geometry" />
        </mxCell>
        <mxCell id="-gmBfWTodBVbKLzpmrSE-77" value="&lt;div&gt;Coordination&amp;nbsp;&lt;/div&gt;&lt;div&gt;Specialist&lt;br&gt;&lt;/div&gt;" style="swimlane;startSize=30;horizontal=0;html=1;spacingLeft=1;" vertex="1" parent="-gmBfWTodBVbKLzpmrSE-76">
          <mxGeometry y="20" width="970" height="120" as="geometry" />
        </mxCell>
        <mxCell id="-gmBfWTodBVbKLzpmrSE-106" value="" style="edgeStyle=orthogonalEdgeStyle;rounded=0;orthogonalLoop=1;jettySize=auto;html=1;" edge="1" parent="-gmBfWTodBVbKLzpmrSE-77" source="-gmBfWTodBVbKLzpmrSE-93" target="-gmBfWTodBVbKLzpmrSE-103">
          <mxGeometry relative="1" as="geometry" />
        </mxCell>
        <mxCell id="-gmBfWTodBVbKLzpmrSE-93" value="Create plan" style="whiteSpace=wrap;html=1;fillColor=#ffffc0;strokeColor=#ff0000;" vertex="1" parent="-gmBfWTodBVbKLzpmrSE-77">
          <mxGeometry x="450" y="40" width="120" height="60" as="geometry" />
        </mxCell>
        <mxCell id="-gmBfWTodBVbKLzpmrSE-96" value="" style="edgeStyle=orthogonalEdgeStyle;rounded=0;orthogonalLoop=1;jettySize=auto;html=1;" edge="1" parent="-gmBfWTodBVbKLzpmrSE-77" source="-gmBfWTodBVbKLzpmrSE-95" target="-gmBfWTodBVbKLzpmrSE-93">
          <mxGeometry relative="1" as="geometry" />
        </mxCell>
        <mxCell id="-gmBfWTodBVbKLzpmrSE-95" value="start 2" style="ellipse;shape=startState;fillColor=#000000;strokeColor=#ff0000;fontColor=light-dark(#cfc4c4, #ededed);" vertex="1" parent="-gmBfWTodBVbKLzpmrSE-77">
          <mxGeometry x="300" y="45" width="60" height="50" as="geometry" />
        </mxCell>
        <mxCell id="-gmBfWTodBVbKLzpmrSE-103" value="Submit" style="whiteSpace=wrap;html=1;fillColor=#ffffc0;strokeColor=#ff0000;" vertex="1" parent="-gmBfWTodBVbKLzpmrSE-77">
          <mxGeometry x="610" y="40" width="120" height="60" as="geometry" />
        </mxCell>
        <mxCell id="-gmBfWTodBVbKLzpmrSE-78" value="Coordination &lt;div&gt;Leader&lt;/div&gt;" style="swimlane;startSize=30;horizontal=0;html=1;" vertex="1" parent="-gmBfWTodBVbKLzpmrSE-76">
          <mxGeometry y="140" width="970" height="110" as="geometry" />
        </mxCell>
        <mxCell id="-gmBfWTodBVbKLzpmrSE-104" value="Approve plan" style="rhombus;fillColor=#ffffc0;strokeColor=#ff0000;" vertex="1" parent="-gmBfWTodBVbKLzpmrSE-78">
          <mxGeometry x="610" y="30" width="120" height="70" as="geometry" />
        </mxCell>
        <mxCell id="-gmBfWTodBVbKLzpmrSE-79" value="Finance&lt;div&gt;Specialist&lt;/div&gt;" style="swimlane;startSize=30;horizontal=0;html=1;" vertex="1" parent="-gmBfWTodBVbKLzpmrSE-76">
          <mxGeometry y="250" width="970" height="120" as="geometry" />
        </mxCell>
        <mxCell id="-gmBfWTodBVbKLzpmrSE-110" value="Approve plan" style="rhombus;fillColor=#ffffc0;strokeColor=#ff0000;" vertex="1" parent="-gmBfWTodBVbKLzpmrSE-79">
          <mxGeometry x="610" y="17" width="120" height="70" as="geometry" />
        </mxCell>
        <mxCell id="-gmBfWTodBVbKLzpmrSE-105" value="" style="edgeStyle=orthogonalEdgeStyle;rounded=0;orthogonalLoop=1;jettySize=auto;html=1;" edge="1" parent="-gmBfWTodBVbKLzpmrSE-76" source="-gmBfWTodBVbKLzpmrSE-103" target="-gmBfWTodBVbKLzpmrSE-104">
          <mxGeometry relative="1" as="geometry" />
        </mxCell>
        <mxCell id="-gmBfWTodBVbKLzpmrSE-109" value="N" style="edgeStyle=orthogonalEdgeStyle;rounded=0;orthogonalLoop=1;jettySize=auto;html=1;" edge="1" parent="-gmBfWTodBVbKLzpmrSE-76" source="-gmBfWTodBVbKLzpmrSE-104" target="-gmBfWTodBVbKLzpmrSE-93">
          <mxGeometry relative="1" as="geometry">
            <mxPoint x="590" y="290" as="sourcePoint" />
            <mxPoint x="590" y="340" as="targetPoint" />
          </mxGeometry>
        </mxCell>
        <mxCell id="-gmBfWTodBVbKLzpmrSE-115" value="Y" style="edgeStyle=orthogonalEdgeStyle;rounded=0;orthogonalLoop=1;jettySize=auto;html=1;exitX=0.5;exitY=1;exitDx=0;exitDy=0;" edge="1" parent="-gmBfWTodBVbKLzpmrSE-76" source="-gmBfWTodBVbKLzpmrSE-104" target="-gmBfWTodBVbKLzpmrSE-110">
          <mxGeometry relative="1" as="geometry">
            <mxPoint x="770" y="270" as="sourcePoint" />
            <mxPoint x="850" y="270" as="targetPoint" />
          </mxGeometry>
        </mxCell>
        <mxCell id="-gmBfWTodBVbKLzpmrSE-116" value="N" style="edgeStyle=orthogonalEdgeStyle;rounded=0;orthogonalLoop=1;jettySize=auto;html=1;exitX=0;exitY=0.5;exitDx=0;exitDy=0;dashed=1;strokeColor=#330066;" edge="1" parent="-gmBfWTodBVbKLzpmrSE-76" source="-gmBfWTodBVbKLzpmrSE-110" target="-gmBfWTodBVbKLzpmrSE-93">
          <mxGeometry relative="1" as="geometry">
            <mxPoint x="650" y="385" as="sourcePoint" />
            <mxPoint x="560" y="300" as="targetPoint" />
          </mxGeometry>
        </mxCell>
        <mxCell id="-gmBfWTodBVbKLzpmrSE-82" value="Financial&lt;div&gt;Leader&lt;/div&gt;" style="swimlane;startSize=30;horizontal=0;html=1;align=center;" vertex="1" parent="1">
          <mxGeometry x="60" y="-310" width="970" height="170" as="geometry" />
        </mxCell>
        <mxCell id="-gmBfWTodBVbKLzpmrSE-87" value="ApproveÂ &#xa;to Period" style="rhombus;fillColor=#ffffc0;strokeColor=#ff0000;" vertex="1" parent="-gmBfWTodBVbKLzpmrSE-82">
          <mxGeometry x="250" y="10" width="120" height="70" as="geometry" />
        </mxCell>
        <mxCell id="-gmBfWTodBVbKLzpmrSE-91" value="" style="shape=waypoint;sketch=0;size=6;pointerEvents=1;points=[];fillColor=#ffffc0;resizable=0;rotatable=0;perimeter=centerPerimeter;snapToPoint=1;strokeColor=#ff0000;" vertex="1" parent="-gmBfWTodBVbKLzpmrSE-82">
          <mxGeometry x="300" y="185" width="20" height="20" as="geometry" />
        </mxCell>
        <mxCell id="-gmBfWTodBVbKLzpmrSE-111" value="Approve plan" style="rhombus;fillColor=#ffffc0;strokeColor=#ff0000;" vertex="1" parent="-gmBfWTodBVbKLzpmrSE-82">
          <mxGeometry x="610" y="15" width="120" height="70" as="geometry" />
        </mxCell>
        <mxCell id="-gmBfWTodBVbKLzpmrSE-83" value="Admin" style="swimlane;startSize=30;horizontal=0;html=1;" vertex="1" parent="1">
          <mxGeometry x="60" y="-140" width="970" height="170" as="geometry" />
        </mxCell>
        <mxCell id="-gmBfWTodBVbKLzpmrSE-81" value="start 1" style="ellipse;shape=startState;fillColor=#000000;strokeColor=#ff0000;fontColor=light-dark(#cfc4c4, #ededed);" vertex="1" parent="-gmBfWTodBVbKLzpmrSE-83">
          <mxGeometry x="60" y="30" width="60" height="50" as="geometry" />
        </mxCell>
        <mxCell id="-gmBfWTodBVbKLzpmrSE-84" value="Open period" style="" vertex="1" parent="-gmBfWTodBVbKLzpmrSE-83">
          <mxGeometry x="160" y="30" width="110" height="50" as="geometry" />
        </mxCell>
        <mxCell id="-gmBfWTodBVbKLzpmrSE-85" value="" style="edgeStyle=elbowEdgeStyle;elbow=horizontal;verticalAlign=bottom;endArrow=open;endSize=8;strokeColor=#FF0000;endFill=1;rounded=0;entryX=0;entryY=0.5;entryDx=0;entryDy=0;" edge="1" parent="-gmBfWTodBVbKLzpmrSE-83" source="-gmBfWTodBVbKLzpmrSE-81" target="-gmBfWTodBVbKLzpmrSE-84">
          <mxGeometry x="40" y="130" as="geometry">
            <mxPoint x="101" y="220" as="targetPoint" />
            <mxPoint x="100" y="180" as="sourcePoint" />
          </mxGeometry>
        </mxCell>
        <mxCell id="-gmBfWTodBVbKLzpmrSE-112" value="End" style="ellipse;html=1;shape=endState;fillColor=#000000;strokeColor=#ff0000;fontColor=#FFFFFF;" vertex="1" parent="-gmBfWTodBVbKLzpmrSE-83">
          <mxGeometry x="800" y="30" width="50" height="40" as="geometry" />
        </mxCell>
        <mxCell id="-gmBfWTodBVbKLzpmrSE-89" value="Config template, permission" style="whiteSpace=wrap;html=1;fillColor=#ffffc0;strokeColor=#ff0000;" vertex="1" parent="-gmBfWTodBVbKLzpmrSE-83">
          <mxGeometry x="440" y="65" width="120" height="60" as="geometry" />
        </mxCell>
        <mxCell id="-gmBfWTodBVbKLzpmrSE-88" value="" style="edgeStyle=elbowEdgeStyle;elbow=horizontal;verticalAlign=bottom;endArrow=open;endSize=8;strokeColor=#FF0000;endFill=1;rounded=0;entryX=0;entryY=0.5;entryDx=0;entryDy=0;exitX=0.5;exitY=0;exitDx=0;exitDy=0;" edge="1" parent="1" source="-gmBfWTodBVbKLzpmrSE-84" target="-gmBfWTodBVbKLzpmrSE-87">
          <mxGeometry x="100" y="40" as="geometry">
            <mxPoint x="251" y="-100" as="targetPoint" />
            <mxPoint x="250" y="-140" as="sourcePoint" />
            <Array as="points">
              <mxPoint x="280" y="-150" />
            </Array>
          </mxGeometry>
        </mxCell>
        <mxCell id="-gmBfWTodBVbKLzpmrSE-94" value="" style="edgeStyle=orthogonalEdgeStyle;rounded=0;orthogonalLoop=1;jettySize=auto;html=1;dashed=1;" edge="1" parent="1" source="-gmBfWTodBVbKLzpmrSE-89" target="-gmBfWTodBVbKLzpmrSE-93">
          <mxGeometry relative="1" as="geometry">
            <Array as="points">
              <mxPoint x="570" y="-190" />
              <mxPoint x="570" y="-190" />
            </Array>
          </mxGeometry>
        </mxCell>
        <mxCell id="-gmBfWTodBVbKLzpmrSE-92" value="N" style="edgeStyle=orthogonalEdgeStyle;rounded=0;orthogonalLoop=1;jettySize=auto;html=1;" edge="1" parent="1" source="-gmBfWTodBVbKLzpmrSE-87" target="-gmBfWTodBVbKLzpmrSE-112">
          <mxGeometry relative="1" as="geometry">
            <Array as="points">
              <mxPoint x="370" />
              <mxPoint x="885" />
            </Array>
          </mxGeometry>
        </mxCell>
        <mxCell id="-gmBfWTodBVbKLzpmrSE-113" value="Y" style="edgeStyle=orthogonalEdgeStyle;rounded=0;orthogonalLoop=1;jettySize=auto;html=1;entryX=0.5;entryY=0;entryDx=0;entryDy=0;" edge="1" parent="1" source="-gmBfWTodBVbKLzpmrSE-111" target="-gmBfWTodBVbKLzpmrSE-112">
          <mxGeometry relative="1" as="geometry">
            <mxPoint x="600" y="-180" as="sourcePoint" />
            <mxPoint x="680" y="-180" as="targetPoint" />
          </mxGeometry>
        </mxCell>
        <mxCell id="-gmBfWTodBVbKLzpmrSE-114" value="Y" style="edgeStyle=orthogonalEdgeStyle;rounded=0;orthogonalLoop=1;jettySize=auto;html=1;exitX=0.5;exitY=1;exitDx=0;exitDy=0;" edge="1" parent="1" source="-gmBfWTodBVbKLzpmrSE-110" target="-gmBfWTodBVbKLzpmrSE-111">
          <mxGeometry relative="1" as="geometry">
            <mxPoint x="680" y="-290" as="sourcePoint" />
            <mxPoint x="760" y="-290" as="targetPoint" />
          </mxGeometry>
        </mxCell>
        <mxCell id="-gmBfWTodBVbKLzpmrSE-90" value="Y" style="edgeStyle=orthogonalEdgeStyle;rounded=0;orthogonalLoop=1;jettySize=auto;html=1;exitX=1;exitY=0.5;exitDx=0;exitDy=0;" edge="1" parent="1" source="-gmBfWTodBVbKLzpmrSE-87" target="-gmBfWTodBVbKLzpmrSE-89">
          <mxGeometry relative="1" as="geometry">
            <Array as="points">
              <mxPoint x="440" y="-265" />
              <mxPoint x="440" y="-50" />
            </Array>
          </mxGeometry>
        </mxCell>
        <mxCell id="-gmBfWTodBVbKLzpmrSE-117" value="N" style="edgeStyle=orthogonalEdgeStyle;rounded=0;orthogonalLoop=1;jettySize=auto;html=1;exitX=0;exitY=0.5;exitDx=0;exitDy=0;dashed=1;strokeColor=#CC0000;" edge="1" parent="1" source="-gmBfWTodBVbKLzpmrSE-111" target="-gmBfWTodBVbKLzpmrSE-93">
          <mxGeometry relative="1" as="geometry">
            <mxPoint x="720" y="-185" as="sourcePoint" />
            <mxPoint x="630" y="-270" as="targetPoint" />
          </mxGeometry>
        </mxCell>
      </root>
    </mxGraphModel>
  </diagram>
  <diagram id="lO8-ZBWHJdfazQ3EEGiB" name="ActivityDiagram_adjustment">
    <mxGraphModel dx="1895" dy="958" grid="1" gridSize="10" guides="1" tooltips="1" connect="1" arrows="1" fold="1" page="1" pageScale="1" pageWidth="850" pageHeight="1100" math="0" shadow="0">
      <root>
        <mxCell id="0" />
        <mxCell id="1" parent="0" />
        <mxCell id="827zh1DpxGqWY2eNjHGb-1" value="" style="swimlane;childLayout=stackLayout;resizeParent=1;resizeParentMax=0;horizontal=1;startSize=30;horizontalStack=0;html=1;flipH=0;flipV=0;strokeColor=#999999;fixedWidth=0;collapsible=0;swimlaneLine=1;noLabel=0;expand=0;" vertex="1" parent="1">
          <mxGeometry x="220" y="90" width="1370" height="1010" as="geometry" />
        </mxCell>
        <mxCell id="827zh1DpxGqWY2eNjHGb-7" value="ÄV Äá» xuáº¥t&lt;div&gt;CV&lt;/div&gt;" style="swimlane;startSize=30;horizontal=0;html=1;strokeColor=#999999;" vertex="1" parent="827zh1DpxGqWY2eNjHGb-1">
          <mxGeometry y="30" width="1370" height="120" as="geometry" />
        </mxCell>
        <mxCell id="827zh1DpxGqWY2eNjHGb-21" value="" style="edgeStyle=orthogonalEdgeStyle;rounded=0;orthogonalLoop=1;jettySize=auto;html=1;" edge="1" parent="827zh1DpxGqWY2eNjHGb-7" source="827zh1DpxGqWY2eNjHGb-18" target="827zh1DpxGqWY2eNjHGb-20">
          <mxGeometry relative="1" as="geometry" />
        </mxCell>
        <mxCell id="827zh1DpxGqWY2eNjHGb-18" value="" style="ellipse;html=1;shape=startState;fillColor=#000000;strokeColor=#ff0000;" vertex="1" parent="827zh1DpxGqWY2eNjHGb-7">
          <mxGeometry x="40" y="40" width="30" height="30" as="geometry" />
        </mxCell>
        <mxCell id="827zh1DpxGqWY2eNjHGb-20" value="Táº¡o phiáº¿u yÃªu cáº§u" style="whiteSpace=wrap;html=1;fillColor=#FFFFFF;strokeColor=#ff0000;" vertex="1" parent="827zh1DpxGqWY2eNjHGb-7">
          <mxGeometry x="105" y="25" width="120" height="60" as="geometry" />
        </mxCell>
        <mxCell id="827zh1DpxGqWY2eNjHGb-2" value="ÄV Äá» xuáº¥t&amp;nbsp;&lt;div&gt;LÃ£nh Äáº¡o&lt;/div&gt;" style="swimlane;startSize=30;horizontal=0;html=1;strokeColor=#999999;" vertex="1" parent="827zh1DpxGqWY2eNjHGb-1">
          <mxGeometry y="150" width="1370" height="120" as="geometry" />
        </mxCell>
        <mxCell id="827zh1DpxGqWY2eNjHGb-22" value="Duyá»t" style="rhombus;whiteSpace=wrap;html=1;fillColor=#FFFFFF;strokeColor=#ff0000;" vertex="1" parent="827zh1DpxGqWY2eNjHGb-2">
          <mxGeometry x="260" y="35" width="80" height="80" as="geometry" />
        </mxCell>
        <mxCell id="827zh1DpxGqWY2eNjHGb-3" value="ÄV Äáº§u má»i&lt;div&gt;CV&lt;/div&gt;" style="swimlane;startSize=30;horizontal=0;html=1;strokeColor=#999999;allowArrows=0;expand=0;" vertex="1" parent="827zh1DpxGqWY2eNjHGb-1">
          <mxGeometry y="270" width="1370" height="200" as="geometry" />
        </mxCell>
        <mxCell id="827zh1DpxGqWY2eNjHGb-27" value="Äá»ng Ã½" style="edgeStyle=orthogonalEdgeStyle;rounded=0;orthogonalLoop=1;jettySize=auto;html=1;" edge="1" parent="827zh1DpxGqWY2eNjHGb-3" source="827zh1DpxGqWY2eNjHGb-24" target="827zh1DpxGqWY2eNjHGb-26">
          <mxGeometry relative="1" as="geometry" />
        </mxCell>
        <mxCell id="827zh1DpxGqWY2eNjHGb-24" value="RÃ  soÃ¡t" style="rhombus;whiteSpace=wrap;html=1;fillColor=#FFFFFF;strokeColor=#ff0000;" vertex="1" parent="827zh1DpxGqWY2eNjHGb-3">
          <mxGeometry x="370" y="20" width="80" height="80" as="geometry" />
        </mxCell>
        <mxCell id="827zh1DpxGqWY2eNjHGb-26" value="Táº¡o má»i ÄNÄC" style="rounded=1;whiteSpace=wrap;html=1;fillColor=#FFFFFF;strokeColor=#ff0000;" vertex="1" parent="827zh1DpxGqWY2eNjHGb-3">
          <mxGeometry x="510" y="30" width="120" height="60" as="geometry" />
        </mxCell>
        <mxCell id="827zh1DpxGqWY2eNjHGb-29" value="" style="ellipse;html=1;shape=startState;fillColor=#000000;strokeColor=#ff0000;" vertex="1" parent="827zh1DpxGqWY2eNjHGb-3">
          <mxGeometry x="390" y="140" width="30" height="30" as="geometry" />
        </mxCell>
        <mxCell id="827zh1DpxGqWY2eNjHGb-30" value="" style="edgeStyle=orthogonalEdgeStyle;rounded=0;orthogonalLoop=1;jettySize=auto;html=1;entryX=0.25;entryY=1;entryDx=0;entryDy=0;" edge="1" parent="827zh1DpxGqWY2eNjHGb-3" source="827zh1DpxGqWY2eNjHGb-29" target="827zh1DpxGqWY2eNjHGb-26">
          <mxGeometry relative="1" as="geometry">
            <mxPoint x="430" y="170" as="sourcePoint" />
            <mxPoint x="465" y="170" as="targetPoint" />
          </mxGeometry>
        </mxCell>
        <mxCell id="827zh1DpxGqWY2eNjHGb-33" value="Äiá»u chá»nh theo tham mÆ°u/gá»£i Ã½" style="whiteSpace=wrap;html=1;fillColor=#FFFFFF;strokeColor=#ff0000;rounded=1;" vertex="1" parent="827zh1DpxGqWY2eNjHGb-3">
          <mxGeometry x="710" y="30" width="120" height="60" as="geometry" />
        </mxCell>
        <mxCell id="827zh1DpxGqWY2eNjHGb-4" value="ÄV Äáº§u má»i&lt;div&gt;LÄ&lt;/div&gt;" style="swimlane;startSize=30;horizontal=0;html=1;strokeColor=#999999;" vertex="1" parent="827zh1DpxGqWY2eNjHGb-1">
          <mxGeometry y="470" width="1370" height="110" as="geometry" />
        </mxCell>
        <mxCell id="827zh1DpxGqWY2eNjHGb-35" value="RÃ  soÃ¡t" style="rhombus;whiteSpace=wrap;html=1;fillColor=#FFFFFF;strokeColor=#ff0000;rounded=1;" vertex="1" parent="827zh1DpxGqWY2eNjHGb-4">
          <mxGeometry x="830" y="20" width="80" height="80" as="geometry" />
        </mxCell>
        <mxCell id="827zh1DpxGqWY2eNjHGb-5" value="ÄV Tham mÆ°u,&lt;div&gt;&amp;nbsp;CTQ&lt;/div&gt;" style="swimlane;startSize=30;horizontal=0;html=1;strokeColor=#999999;" vertex="1" parent="827zh1DpxGqWY2eNjHGb-1">
          <mxGeometry y="580" width="1370" height="130" as="geometry" />
        </mxCell>
        <mxCell id="827zh1DpxGqWY2eNjHGb-31" value="Äá»ng Ã½&lt;div&gt;tham váº¥n&lt;/div&gt;" style="rhombus;whiteSpace=wrap;html=1;fillColor=#FFFFFF;strokeColor=#ff0000;rounded=1;" vertex="1" parent="827zh1DpxGqWY2eNjHGb-5">
          <mxGeometry x="530" y="25" width="80" height="80" as="geometry" />
        </mxCell>
        <mxCell id="827zh1DpxGqWY2eNjHGb-6" value="TC&lt;div&gt;CV&lt;/div&gt;" style="swimlane;startSize=30;horizontal=0;html=1;strokeColor=#999999;" vertex="1" parent="827zh1DpxGqWY2eNjHGb-1">
          <mxGeometry y="710" width="1370" height="180" as="geometry" />
        </mxCell>
        <mxCell id="827zh1DpxGqWY2eNjHGb-40" value="" style="edgeStyle=orthogonalEdgeStyle;rounded=0;orthogonalLoop=1;jettySize=auto;html=1;" edge="1" parent="827zh1DpxGqWY2eNjHGb-6" source="827zh1DpxGqWY2eNjHGb-37" target="827zh1DpxGqWY2eNjHGb-39">
          <mxGeometry relative="1" as="geometry" />
        </mxCell>
        <mxCell id="827zh1DpxGqWY2eNjHGb-37" value="RÃ  soÃ¡t" style="rhombus;whiteSpace=wrap;html=1;fillColor=#FFFFFF;strokeColor=#ff0000;rounded=1;" vertex="1" parent="827zh1DpxGqWY2eNjHGb-6">
          <mxGeometry x="830" y="30" width="80" height="80" as="geometry" />
        </mxCell>
        <mxCell id="827zh1DpxGqWY2eNjHGb-39" value="Táº¡o má»i Háº¡ch toÃ¡n" style="whiteSpace=wrap;html=1;fillColor=#FFFFFF;strokeColor=#ff0000;rounded=1;" vertex="1" parent="827zh1DpxGqWY2eNjHGb-6">
          <mxGeometry x="970" y="40" width="120" height="60" as="geometry" />
        </mxCell>
        <mxCell id="827zh1DpxGqWY2eNjHGb-41" value="" style="ellipse;html=1;shape=startState;fillColor=#000000;strokeColor=#ff0000;" vertex="1" parent="827zh1DpxGqWY2eNjHGb-6">
          <mxGeometry x="855" y="120" width="30" height="30" as="geometry" />
        </mxCell>
        <mxCell id="827zh1DpxGqWY2eNjHGb-42" value="" style="edgeStyle=orthogonalEdgeStyle;rounded=0;orthogonalLoop=1;jettySize=auto;html=1;entryX=0.25;entryY=1;entryDx=0;entryDy=0;" edge="1" parent="827zh1DpxGqWY2eNjHGb-6" source="827zh1DpxGqWY2eNjHGb-41" target="827zh1DpxGqWY2eNjHGb-39">
          <mxGeometry relative="1" as="geometry">
            <mxPoint x="925" y="220" as="sourcePoint" />
            <mxPoint x="975" y="140" as="targetPoint" />
          </mxGeometry>
        </mxCell>
        <mxCell id="827zh1DpxGqWY2eNjHGb-8" value="TC - LÃ£nh Äáº¡o" style="swimlane;startSize=30;horizontal=0;html=1;strokeColor=#999999;" vertex="1" parent="827zh1DpxGqWY2eNjHGb-1">
          <mxGeometry y="890" width="1370" height="120" as="geometry" />
        </mxCell>
        <mxCell id="827zh1DpxGqWY2eNjHGb-46" value="Äá»ng Ã½" style="edgeStyle=orthogonalEdgeStyle;rounded=0;orthogonalLoop=1;jettySize=auto;html=1;" edge="1" parent="827zh1DpxGqWY2eNjHGb-8" source="827zh1DpxGqWY2eNjHGb-43" target="827zh1DpxGqWY2eNjHGb-47">
          <mxGeometry relative="1" as="geometry">
            <mxPoint x="1280" y="70" as="targetPoint" />
          </mxGeometry>
        </mxCell>
        <mxCell id="827zh1DpxGqWY2eNjHGb-43" value="PhÃª duyá»t" style="rhombus;whiteSpace=wrap;html=1;fillColor=#FFFFFF;strokeColor=#ff0000;rounded=1;" vertex="1" parent="827zh1DpxGqWY2eNjHGb-8">
          <mxGeometry x="1080" y="30" width="80" height="80" as="geometry" />
        </mxCell>
        <mxCell id="827zh1DpxGqWY2eNjHGb-47" value="" style="ellipse;html=1;shape=endState;fillColor=#000000;strokeColor=#ff0000;" vertex="1" parent="827zh1DpxGqWY2eNjHGb-8">
          <mxGeometry x="1280" y="55" width="30" height="30" as="geometry" />
        </mxCell>
        <mxCell id="827zh1DpxGqWY2eNjHGb-23" value="" style="edgeStyle=orthogonalEdgeStyle;rounded=0;orthogonalLoop=1;jettySize=auto;html=1;" edge="1" parent="827zh1DpxGqWY2eNjHGb-1" source="827zh1DpxGqWY2eNjHGb-20" target="827zh1DpxGqWY2eNjHGb-22">
          <mxGeometry relative="1" as="geometry" />
        </mxCell>
        <mxCell id="827zh1DpxGqWY2eNjHGb-25" value="Äá»ng Ã½" style="edgeStyle=orthogonalEdgeStyle;rounded=0;orthogonalLoop=1;jettySize=auto;html=1;entryX=0.5;entryY=0;entryDx=0;entryDy=0;" edge="1" parent="827zh1DpxGqWY2eNjHGb-1" source="827zh1DpxGqWY2eNjHGb-22" target="827zh1DpxGqWY2eNjHGb-24">
          <mxGeometry relative="1" as="geometry">
            <mxPoint x="230" y="275" as="targetPoint" />
            <Array as="points">
              <mxPoint x="410" y="230" />
            </Array>
          </mxGeometry>
        </mxCell>
        <mxCell id="827zh1DpxGqWY2eNjHGb-28" value="Tá»« chá»i" style="edgeStyle=orthogonalEdgeStyle;rounded=0;orthogonalLoop=1;jettySize=auto;html=1;dashed=1;" edge="1" parent="827zh1DpxGqWY2eNjHGb-1" source="827zh1DpxGqWY2eNjHGb-22" target="827zh1DpxGqWY2eNjHGb-20">
          <mxGeometry relative="1" as="geometry">
            <mxPoint x="90" y="180" as="sourcePoint" />
            <mxPoint x="115" y="245" as="targetPoint" />
          </mxGeometry>
        </mxCell>
        <mxCell id="827zh1DpxGqWY2eNjHGb-32" value="" style="edgeStyle=orthogonalEdgeStyle;rounded=0;orthogonalLoop=1;jettySize=auto;html=1;" edge="1" parent="827zh1DpxGqWY2eNjHGb-1" source="827zh1DpxGqWY2eNjHGb-26" target="827zh1DpxGqWY2eNjHGb-31">
          <mxGeometry relative="1" as="geometry" />
        </mxCell>
        <mxCell id="827zh1DpxGqWY2eNjHGb-34" value="Äá»ng Ã½" style="edgeStyle=orthogonalEdgeStyle;rounded=0;orthogonalLoop=1;jettySize=auto;html=1;entryX=0.25;entryY=1;entryDx=0;entryDy=0;" edge="1" parent="827zh1DpxGqWY2eNjHGb-1" source="827zh1DpxGqWY2eNjHGb-31" target="827zh1DpxGqWY2eNjHGb-33">
          <mxGeometry relative="1" as="geometry" />
        </mxCell>
        <mxCell id="827zh1DpxGqWY2eNjHGb-36" value="" style="edgeStyle=orthogonalEdgeStyle;rounded=0;orthogonalLoop=1;jettySize=auto;html=1;exitX=1;exitY=0.5;exitDx=0;exitDy=0;" edge="1" parent="827zh1DpxGqWY2eNjHGb-1" source="827zh1DpxGqWY2eNjHGb-33" target="827zh1DpxGqWY2eNjHGb-35">
          <mxGeometry relative="1" as="geometry" />
        </mxCell>
        <mxCell id="827zh1DpxGqWY2eNjHGb-38" value="" style="edgeStyle=orthogonalEdgeStyle;rounded=0;orthogonalLoop=1;jettySize=auto;html=1;" edge="1" parent="827zh1DpxGqWY2eNjHGb-1" source="827zh1DpxGqWY2eNjHGb-35" target="827zh1DpxGqWY2eNjHGb-37">
          <mxGeometry relative="1" as="geometry" />
        </mxCell>
        <mxCell id="827zh1DpxGqWY2eNjHGb-44" value="" style="edgeStyle=orthogonalEdgeStyle;rounded=0;orthogonalLoop=1;jettySize=auto;html=1;" edge="1" parent="827zh1DpxGqWY2eNjHGb-1" source="827zh1DpxGqWY2eNjHGb-39" target="827zh1DpxGqWY2eNjHGb-43">
          <mxGeometry relative="1" as="geometry">
            <Array as="points">
              <mxPoint x="1120" y="780" />
            </Array>
          </mxGeometry>
        </mxCell>
        <mxCell id="827zh1DpxGqWY2eNjHGb-48" value="Tá»« chá»i" style="edgeStyle=orthogonalEdgeStyle;rounded=0;orthogonalLoop=1;jettySize=auto;html=1;exitX=0;exitY=0.5;exitDx=0;exitDy=0;entryX=0.5;entryY=1;entryDx=0;entryDy=0;dashed=1;dashPattern=12 12;" edge="1" parent="827zh1DpxGqWY2eNjHGb-1" source="827zh1DpxGqWY2eNjHGb-24" target="827zh1DpxGqWY2eNjHGb-20">
          <mxGeometry relative="1" as="geometry">
            <mxPoint x="307" y="437" as="sourcePoint" />
            <mxPoint x="210" y="320" as="targetPoint" />
          </mxGeometry>
        </mxCell>
        <mxCell id="827zh1DpxGqWY2eNjHGb-49" value="Tá»« chá»i" style="edgeStyle=orthogonalEdgeStyle;rounded=0;orthogonalLoop=1;jettySize=auto;html=1;exitX=0;exitY=0.5;exitDx=0;exitDy=0;entryX=0.375;entryY=1.054;entryDx=0;entryDy=0;dashed=1;entryPerimeter=0;" edge="1" parent="827zh1DpxGqWY2eNjHGb-1" source="827zh1DpxGqWY2eNjHGb-31" target="827zh1DpxGqWY2eNjHGb-26">
          <mxGeometry relative="1" as="geometry">
            <mxPoint x="535" y="815" as="sourcePoint" />
            <mxPoint x="330" y="600" as="targetPoint" />
          </mxGeometry>
        </mxCell>
        <mxCell id="827zh1DpxGqWY2eNjHGb-50" value="Tá»« chá»i" style="edgeStyle=orthogonalEdgeStyle;rounded=0;orthogonalLoop=1;jettySize=auto;html=1;exitX=0;exitY=0.5;exitDx=0;exitDy=0;entryX=0.75;entryY=1;entryDx=0;entryDy=0;dashed=1;" edge="1" parent="827zh1DpxGqWY2eNjHGb-1" source="827zh1DpxGqWY2eNjHGb-35" target="827zh1DpxGqWY2eNjHGb-33">
          <mxGeometry relative="1" as="geometry">
            <mxPoint x="1000" y="792" as="sourcePoint" />
            <mxPoint x="1025" y="510" as="targetPoint" />
          </mxGeometry>
        </mxCell>
        <mxCell id="827zh1DpxGqWY2eNjHGb-51" value="Tá»« chá»i" style="edgeStyle=orthogonalEdgeStyle;rounded=0;orthogonalLoop=1;jettySize=auto;html=1;exitX=0;exitY=0.5;exitDx=0;exitDy=0;entryX=0.5;entryY=1;entryDx=0;entryDy=0;dashed=1;" edge="1" parent="827zh1DpxGqWY2eNjHGb-1" source="827zh1DpxGqWY2eNjHGb-37" target="827zh1DpxGqWY2eNjHGb-33">
          <mxGeometry relative="1" as="geometry">
            <mxPoint x="820" y="910" as="sourcePoint" />
            <mxPoint x="790" y="740" as="targetPoint" />
          </mxGeometry>
        </mxCell>
        <mxCell id="827zh1DpxGqWY2eNjHGb-52" value="Tá»« chá»i" style="edgeStyle=orthogonalEdgeStyle;rounded=0;orthogonalLoop=1;jettySize=auto;html=1;exitX=0;exitY=0.5;exitDx=0;exitDy=0;entryX=0.5;entryY=1;entryDx=0;entryDy=0;dashed=1;" edge="1" parent="827zh1DpxGqWY2eNjHGb-1" source="827zh1DpxGqWY2eNjHGb-43" target="827zh1DpxGqWY2eNjHGb-39">
          <mxGeometry relative="1" as="geometry">
            <mxPoint x="980" y="1150" as="sourcePoint" />
            <mxPoint x="950" y="980" as="targetPoint" />
          </mxGeometry>
        </mxCell>
        <mxCell id="SDlO-wr2AQfVMBkFqx_i-1" value="cross follow cháº£t" style="shape=table;childLayout=tableLayout;startSize=40;collapsible=0;recursiveResize=0;expand=0;fillColor=none;fontStyle=1" vertex="1" parent="1">
          <mxGeometry x="190" y="1330" width="670" height="300" as="geometry" />
        </mxCell>
        <mxCell id="SDlO-wr2AQfVMBkFqx_i-2" value="" style="edgeStyle=orthogonalEdgeStyle;rounded=0;orthogonalLoop=1;jettySize=auto;html=1;" edge="1" parent="SDlO-wr2AQfVMBkFqx_i-1" source="SDlO-wr2AQfVMBkFqx_i-7" target="SDlO-wr2AQfVMBkFqx_i-17">
          <mxGeometry relative="1" as="geometry" />
        </mxCell>
        <mxCell id="SDlO-wr2AQfVMBkFqx_i-3" value="Customer" style="shape=tableRow;horizontal=0;swimlaneHead=0;swimlaneBody=0;top=0;left=0;bottom=0;right=0;fillColor=none;points=[[0,0.5],[1,0.5]];portConstraint=eastwest;startSize=40;collapsible=0;recursiveResize=0;expand=0;fontStyle=1;" vertex="1" parent="SDlO-wr2AQfVMBkFqx_i-1">
          <mxGeometry y="40" width="670" height="180" as="geometry" />
        </mxCell>
        <mxCell id="SDlO-wr2AQfVMBkFqx_i-4" value="Feel tired" style="swimlane;swimlaneHead=0;swimlaneBody=0;connectable=0;fillColor=none;startSize=40;collapsible=0;recursiveResize=0;expand=0;fontStyle=1;" vertex="1" parent="SDlO-wr2AQfVMBkFqx_i-3">
          <mxGeometry x="40" width="130" height="180" as="geometry">
            <mxRectangle width="130" height="180" as="alternateBounds" />
          </mxGeometry>
        </mxCell>
        <mxCell id="SDlO-wr2AQfVMBkFqx_i-5" style="edgeStyle=orthogonalEdgeStyle;rounded=0;orthogonalLoop=1;jettySize=auto;html=1;" edge="1" parent="SDlO-wr2AQfVMBkFqx_i-4" source="SDlO-wr2AQfVMBkFqx_i-6" target="SDlO-wr2AQfVMBkFqx_i-7">
          <mxGeometry relative="1" as="geometry" />
        </mxCell>
        <mxCell id="SDlO-wr2AQfVMBkFqx_i-6" value="Start" style="rounded=1;whiteSpace=wrap;html=1;arcSize=50;" vertex="1" parent="SDlO-wr2AQfVMBkFqx_i-4">
          <mxGeometry x="20" y="60" width="90" height="40" as="geometry" />
        </mxCell>
        <mxCell id="SDlO-wr2AQfVMBkFqx_i-7" value="Find barista" style="rounded=0;whiteSpace=wrap;html=1;" vertex="1" parent="SDlO-wr2AQfVMBkFqx_i-4">
          <mxGeometry x="20" y="120" width="90" height="40" as="geometry" />
        </mxCell>
        <mxCell id="SDlO-wr2AQfVMBkFqx_i-8" value="Make transaction" style="swimlane;swimlaneHead=0;swimlaneBody=0;connectable=0;fillColor=none;startSize=40;collapsible=0;recursiveResize=0;expand=0;fontStyle=1;" vertex="1" parent="SDlO-wr2AQfVMBkFqx_i-3">
          <mxGeometry x="170" width="370" height="180" as="geometry">
            <mxRectangle width="370" height="180" as="alternateBounds" />
          </mxGeometry>
        </mxCell>
        <mxCell id="SDlO-wr2AQfVMBkFqx_i-9" value="Request latte" style="rounded=0;whiteSpace=wrap;html=1;" vertex="1" parent="SDlO-wr2AQfVMBkFqx_i-8">
          <mxGeometry x="20" y="120" width="90" height="40" as="geometry" />
        </mxCell>
        <mxCell id="SDlO-wr2AQfVMBkFqx_i-10" value="Buy latte" style="rounded=0;whiteSpace=wrap;html=1;" vertex="1" parent="SDlO-wr2AQfVMBkFqx_i-8">
          <mxGeometry x="150" y="120" width="90" height="40" as="geometry" />
        </mxCell>
        <mxCell id="SDlO-wr2AQfVMBkFqx_i-11" value="Feel perky" style="swimlane;swimlaneHead=0;swimlaneBody=0;connectable=0;fillColor=none;startSize=40;collapsible=0;recursiveResize=0;expand=0;fontStyle=1;" vertex="1" parent="SDlO-wr2AQfVMBkFqx_i-3">
          <mxGeometry x="540" width="130" height="180" as="geometry">
            <mxRectangle width="130" height="180" as="alternateBounds" />
          </mxGeometry>
        </mxCell>
        <mxCell id="SDlO-wr2AQfVMBkFqx_i-12" style="edgeStyle=orthogonalEdgeStyle;rounded=0;orthogonalLoop=1;jettySize=auto;html=1;" edge="1" parent="SDlO-wr2AQfVMBkFqx_i-11" source="SDlO-wr2AQfVMBkFqx_i-13" target="SDlO-wr2AQfVMBkFqx_i-14">
          <mxGeometry relative="1" as="geometry" />
        </mxCell>
        <mxCell id="SDlO-wr2AQfVMBkFqx_i-13" value="Drink latte" style="rounded=0;whiteSpace=wrap;html=1;" vertex="1" parent="SDlO-wr2AQfVMBkFqx_i-11">
          <mxGeometry x="20" y="60" width="90" height="40" as="geometry" />
        </mxCell>
        <mxCell id="SDlO-wr2AQfVMBkFqx_i-14" value="End" style="rounded=1;whiteSpace=wrap;html=1;arcSize=50;" vertex="1" parent="SDlO-wr2AQfVMBkFqx_i-11">
          <mxGeometry x="20" y="120" width="90" height="40" as="geometry" />
        </mxCell>
        <mxCell id="SDlO-wr2AQfVMBkFqx_i-15" value="Barista" style="shape=tableRow;horizontal=0;swimlaneHead=0;swimlaneBody=0;top=0;left=0;bottom=0;right=0;fillColor=none;points=[[0,0.5],[1,0.5]];portConstraint=eastwest;startSize=40;collapsible=0;recursiveResize=0;expand=0;fontStyle=1;" vertex="1" parent="SDlO-wr2AQfVMBkFqx_i-1">
          <mxGeometry y="220" width="670" height="80" as="geometry" />
        </mxCell>
        <mxCell id="SDlO-wr2AQfVMBkFqx_i-16" value="" style="swimlane;swimlaneHead=0;swimlaneBody=0;connectable=0;fillColor=none;startSize=0;collapsible=0;recursiveResize=0;expand=0;fontStyle=1;" vertex="1" parent="SDlO-wr2AQfVMBkFqx_i-15">
          <mxGeometry x="40" width="130" height="80" as="geometry">
            <mxRectangle width="130" height="80" as="alternateBounds" />
          </mxGeometry>
        </mxCell>
        <mxCell id="SDlO-wr2AQfVMBkFqx_i-17" value="Greet customer" style="rounded=0;whiteSpace=wrap;html=1;" vertex="1" parent="SDlO-wr2AQfVMBkFqx_i-16">
          <mxGeometry x="20" y="20" width="90" height="40" as="geometry" />
        </mxCell>
        <mxCell id="SDlO-wr2AQfVMBkFqx_i-18" value="" style="swimlane;swimlaneHead=0;swimlaneBody=0;connectable=0;fillColor=none;startSize=0;collapsible=0;recursiveResize=0;expand=0;fontStyle=1;" vertex="1" parent="SDlO-wr2AQfVMBkFqx_i-15">
          <mxGeometry x="170" width="370" height="80" as="geometry">
            <mxRectangle width="370" height="80" as="alternateBounds" />
          </mxGeometry>
        </mxCell>
        <mxCell id="SDlO-wr2AQfVMBkFqx_i-19" value="" style="edgeStyle=orthogonalEdgeStyle;rounded=0;orthogonalLoop=1;jettySize=auto;html=1;" edge="1" parent="SDlO-wr2AQfVMBkFqx_i-18" source="SDlO-wr2AQfVMBkFqx_i-20" target="SDlO-wr2AQfVMBkFqx_i-22">
          <mxGeometry relative="1" as="geometry" />
        </mxCell>
        <mxCell id="SDlO-wr2AQfVMBkFqx_i-20" value="Accept&lt;br&gt;payment" style="rounded=0;whiteSpace=wrap;html=1;" vertex="1" parent="SDlO-wr2AQfVMBkFqx_i-18">
          <mxGeometry x="150" y="20" width="90" height="40" as="geometry" />
        </mxCell>
        <mxCell id="SDlO-wr2AQfVMBkFqx_i-21" value="Write details&lt;br&gt;on cup" style="shape=document;whiteSpace=wrap;html=1;boundedLbl=1;" vertex="1" parent="SDlO-wr2AQfVMBkFqx_i-18">
          <mxGeometry x="20" y="10" width="90" height="60" as="geometry" />
        </mxCell>
        <mxCell id="SDlO-wr2AQfVMBkFqx_i-22" value="Make latte" style="shape=process;whiteSpace=wrap;html=1;backgroundOutline=1;" vertex="1" parent="SDlO-wr2AQfVMBkFqx_i-18">
          <mxGeometry x="260" y="20" width="90" height="40" as="geometry" />
        </mxCell>
        <mxCell id="SDlO-wr2AQfVMBkFqx_i-23" value="" style="swimlane;swimlaneHead=0;swimlaneBody=0;connectable=0;fillColor=none;startSize=0;collapsible=0;recursiveResize=0;expand=0;fontStyle=1;" vertex="1" parent="SDlO-wr2AQfVMBkFqx_i-15">
          <mxGeometry x="540" width="130" height="80" as="geometry">
            <mxRectangle width="130" height="80" as="alternateBounds" />
          </mxGeometry>
        </mxCell>
        <mxCell id="SDlO-wr2AQfVMBkFqx_i-24" value="" style="edgeStyle=orthogonalEdgeStyle;rounded=0;orthogonalLoop=1;jettySize=auto;html=1;" edge="1" parent="SDlO-wr2AQfVMBkFqx_i-1" source="SDlO-wr2AQfVMBkFqx_i-17" target="SDlO-wr2AQfVMBkFqx_i-9">
          <mxGeometry relative="1" as="geometry">
            <Array as="points">
              <mxPoint x="160" y="260" />
              <mxPoint x="160" y="180" />
            </Array>
          </mxGeometry>
        </mxCell>
        <mxCell id="SDlO-wr2AQfVMBkFqx_i-25" value="" style="edgeStyle=orthogonalEdgeStyle;rounded=0;orthogonalLoop=1;jettySize=auto;html=1;" edge="1" parent="SDlO-wr2AQfVMBkFqx_i-1" source="SDlO-wr2AQfVMBkFqx_i-9" target="SDlO-wr2AQfVMBkFqx_i-21">
          <mxGeometry relative="1" as="geometry" />
        </mxCell>
        <mxCell id="SDlO-wr2AQfVMBkFqx_i-26" value="" style="edgeStyle=orthogonalEdgeStyle;rounded=0;orthogonalLoop=1;jettySize=auto;html=1;" edge="1" parent="SDlO-wr2AQfVMBkFqx_i-1" source="SDlO-wr2AQfVMBkFqx_i-21" target="SDlO-wr2AQfVMBkFqx_i-10">
          <mxGeometry relative="1" as="geometry">
            <Array as="points">
              <mxPoint x="300" y="260" />
              <mxPoint x="300" y="180" />
            </Array>
          </mxGeometry>
        </mxCell>
        <mxCell id="SDlO-wr2AQfVMBkFqx_i-27" value="" style="edgeStyle=orthogonalEdgeStyle;rounded=0;orthogonalLoop=1;jettySize=auto;html=1;" edge="1" parent="SDlO-wr2AQfVMBkFqx_i-1" source="SDlO-wr2AQfVMBkFqx_i-10" target="SDlO-wr2AQfVMBkFqx_i-20">
          <mxGeometry relative="1" as="geometry" />
        </mxCell>
        <mxCell id="SDlO-wr2AQfVMBkFqx_i-28" style="edgeStyle=orthogonalEdgeStyle;rounded=0;orthogonalLoop=1;jettySize=auto;html=1;" edge="1" parent="SDlO-wr2AQfVMBkFqx_i-1" source="SDlO-wr2AQfVMBkFqx_i-22" target="SDlO-wr2AQfVMBkFqx_i-13">
          <mxGeometry relative="1" as="geometry">
            <Array as="points">
              <mxPoint x="530" y="260" />
              <mxPoint x="530" y="120" />
            </Array>
          </mxGeometry>
        </mxCell>
      </root>
    </mxGraphModel>
  </diagram>
  <diagram id="qw0KhGHSnDrs2PT_XiOA" name="ActivityDiagram_DoBudget">
    <mxGraphModel dx="2076" dy="620" grid="1" gridSize="10" guides="1" tooltips="1" connect="1" arrows="1" fold="1" page="1" pageScale="1" pageWidth="850" pageHeight="1100" math="0" shadow="0">
      <root>
        <mxCell id="0" />
        <mxCell id="1" parent="0" />
        <mxCell id="CtVYo-d3nder9GVQqAa6-1" value="" style="swimlane;childLayout=stackLayout;resizeParent=1;resizeParentMax=0;horizontal=1;startSize=30;horizontalStack=0;html=1;flipH=0;flipV=0;strokeColor=#999999;fixedWidth=0;collapsible=0;swimlaneLine=1;noLabel=0;expand=0;" vertex="1" parent="1">
          <mxGeometry x="-400" y="170" width="900" height="380" as="geometry" />
        </mxCell>
        <mxCell id="CtVYo-d3nder9GVQqAa6-2" value="Request" style="swimlane;startSize=30;horizontal=0;html=1;strokeColor=#999999;" vertex="1" parent="CtVYo-d3nder9GVQqAa6-1">
          <mxGeometry y="30" width="900" height="350" as="geometry" />
        </mxCell>
        <mxCell id="CtVYo-d3nder9GVQqAa6-3" value="" style="edgeStyle=orthogonalEdgeStyle;rounded=0;orthogonalLoop=1;jettySize=auto;html=1;" edge="1" parent="CtVYo-d3nder9GVQqAa6-2" source="CtVYo-d3nder9GVQqAa6-4" target="CtVYo-d3nder9GVQqAa6-5">
          <mxGeometry relative="1" as="geometry" />
        </mxCell>
        <mxCell id="CtVYo-d3nder9GVQqAa6-4" value="" style="ellipse;html=1;shape=startState;fillColor=#000000;strokeColor=#ff0000;" vertex="1" parent="CtVYo-d3nder9GVQqAa6-2">
          <mxGeometry x="40" y="40" width="30" height="30" as="geometry" />
        </mxCell>
        <mxCell id="CtVYo-d3nder9GVQqAa6-5" value="hold balance" style="whiteSpace=wrap;html=1;fillColor=#FFFFFF;strokeColor=#ff0000;" vertex="1" parent="CtVYo-d3nder9GVQqAa6-2">
          <mxGeometry x="105" y="25" width="120" height="60" as="geometry" />
        </mxCell>
        <mxCell id="CtVYo-d3nder9GVQqAa6-43" value="N" style="edgeStyle=orthogonalEdgeStyle;rounded=0;orthogonalLoop=1;jettySize=auto;html=1;" edge="1" parent="CtVYo-d3nder9GVQqAa6-2" source="CtVYo-d3nder9GVQqAa6-7" target="CtVYo-d3nder9GVQqAa6-42">
          <mxGeometry relative="1" as="geometry" />
        </mxCell>
        <mxCell id="CtVYo-d3nder9GVQqAa6-7" value="Confirm" style="rhombus;whiteSpace=wrap;html=1;fillColor=#FFFFFF;strokeColor=#ff0000;" vertex="1" parent="CtVYo-d3nder9GVQqAa6-2">
          <mxGeometry x="390" y="15" width="80" height="80" as="geometry" />
        </mxCell>
        <mxCell id="CtVYo-d3nder9GVQqAa6-29" value="" style="edgeStyle=orthogonalEdgeStyle;rounded=0;orthogonalLoop=1;jettySize=auto;html=1;" edge="1" parent="CtVYo-d3nder9GVQqAa6-2" source="CtVYo-d3nder9GVQqAa6-5" target="CtVYo-d3nder9GVQqAa6-7">
          <mxGeometry relative="1" as="geometry" />
        </mxCell>
        <mxCell id="CtVYo-d3nder9GVQqAa6-42" value="Submit request" style="rounded=1;whiteSpace=wrap;html=1;fillColor=#FFFFFF;strokeColor=#ff0000;" vertex="1" parent="CtVYo-d3nder9GVQqAa6-2">
          <mxGeometry x="530" y="25" width="120" height="60" as="geometry" />
        </mxCell>
        <mxCell id="CtVYo-d3nder9GVQqAa6-46" value="" style="ellipse;html=1;shape=endState;fillColor=#000000;strokeColor=#ff0000;" vertex="1" parent="CtVYo-d3nder9GVQqAa6-2">
          <mxGeometry x="740" y="130" width="30" height="30" as="geometry" />
        </mxCell>
        <mxCell id="CtVYo-d3nder9GVQqAa6-48" value="" style="edgeStyle=orthogonalEdgeStyle;rounded=0;orthogonalLoop=1;jettySize=auto;html=1;exitX=1;exitY=0.5;exitDx=0;exitDy=0;entryX=0.5;entryY=0;entryDx=0;entryDy=0;" edge="1" parent="CtVYo-d3nder9GVQqAa6-2" source="CtVYo-d3nder9GVQqAa6-42" target="CtVYo-d3nder9GVQqAa6-46">
          <mxGeometry relative="1" as="geometry">
            <mxPoint x="870" y="100" as="sourcePoint" />
            <mxPoint x="840" y="55" as="targetPoint" />
          </mxGeometry>
        </mxCell>
        <mxCell id="CtVYo-d3nder9GVQqAa6-44" value="Revert balance" style="whiteSpace=wrap;html=1;fillColor=#FFFFFF;strokeColor=#ff0000;" vertex="1" parent="CtVYo-d3nder9GVQqAa6-2">
          <mxGeometry x="370" y="235" width="120" height="60" as="geometry" />
        </mxCell>
        <mxCell id="CtVYo-d3nder9GVQqAa6-45" value="Y" style="edgeStyle=orthogonalEdgeStyle;rounded=0;orthogonalLoop=1;jettySize=auto;html=1;" edge="1" parent="CtVYo-d3nder9GVQqAa6-2" source="CtVYo-d3nder9GVQqAa6-7" target="CtVYo-d3nder9GVQqAa6-44">
          <mxGeometry relative="1" as="geometry" />
        </mxCell>
        <mxCell id="CtVYo-d3nder9GVQqAa6-47" value="" style="edgeStyle=orthogonalEdgeStyle;rounded=0;orthogonalLoop=1;jettySize=auto;html=1;exitX=1;exitY=0.5;exitDx=0;exitDy=0;entryX=0.5;entryY=1;entryDx=0;entryDy=0;" edge="1" parent="CtVYo-d3nder9GVQqAa6-2" source="CtVYo-d3nder9GVQqAa6-44" target="CtVYo-d3nder9GVQqAa6-46">
          <mxGeometry relative="1" as="geometry">
            <mxPoint x="890" y="230" as="sourcePoint" />
            <mxPoint x="1085" y="220" as="targetPoint" />
          </mxGeometry>
        </mxCell>
      </root>
    </mxGraphModel>
  </diagram>
  <diagram id="g56x_Sacr_YGseS_Potk" name="Component_All">
    <mxGraphModel dx="1892" dy="527" grid="1" gridSize="10" guides="1" tooltips="1" connect="1" arrows="1" fold="1" page="1" pageScale="1" pageWidth="850" pageHeight="1100" math="0" shadow="0">
      <root>
        <mxCell id="0" />
        <mxCell id="1" parent="0" />
        <mxCell id="PiTE5--tQV9tFxWihUPI-41" value="Gateway" style="html=1;dropTarget=0;whiteSpace=wrap;" vertex="1" parent="1">
          <mxGeometry x="440" y="810" width="90" height="40" as="geometry" />
        </mxCell>
        <mxCell id="PiTE5--tQV9tFxWihUPI-42" value="Identity provider" style="html=1;dropTarget=0;whiteSpace=wrap;" vertex="1" parent="1">
          <mxGeometry x="440" y="720" width="90" height="40" as="geometry" />
        </mxCell>
        <mxCell id="PiTE5--tQV9tFxWihUPI-44" value="FE" style="html=1;dropTarget=0;whiteSpace=wrap;" vertex="1" parent="1">
          <mxGeometry x="620" y="810" width="90" height="40" as="geometry" />
        </mxCell>
        <mxCell id="PiTE5--tQV9tFxWihUPI-65" value="" style="group" vertex="1" connectable="0" parent="1">
          <mxGeometry x="-70" y="720" width="170" height="230" as="geometry" />
        </mxCell>
        <mxCell id="PiTE5--tQV9tFxWihUPI-56" value="Redis" style="html=1;dropTarget=0;whiteSpace=wrap;" vertex="1" parent="PiTE5--tQV9tFxWihUPI-65">
          <mxGeometry x="40" y="50" width="90" height="40" as="geometry" />
        </mxCell>
        <mxCell id="PiTE5--tQV9tFxWihUPI-58" value="Kafka" style="html=1;dropTarget=0;whiteSpace=wrap;" vertex="1" parent="PiTE5--tQV9tFxWihUPI-65">
          <mxGeometry x="40" y="120" width="90" height="40" as="geometry" />
        </mxCell>
        <mxCell id="PiTE5--tQV9tFxWihUPI-64" value="" style="html=1;dropTarget=0;whiteSpace=wrap;dashed=1;dashPattern=1 2;fillColor=none;" vertex="1" parent="PiTE5--tQV9tFxWihUPI-65">
          <mxGeometry width="170" height="230" as="geometry" />
        </mxCell>
        <mxCell id="PiTE5--tQV9tFxWihUPI-66" value="" style="endArrow=classic;startArrow=classic;html=1;rounded=0;entryX=0;entryY=0.5;entryDx=0;entryDy=0;" edge="1" parent="1" source="PiTE5--tQV9tFxWihUPI-64" target="PiTE5--tQV9tFxWihUPI-48">
          <mxGeometry width="50" height="50" relative="1" as="geometry">
            <mxPoint x="240" y="910" as="sourcePoint" />
            <mxPoint x="290" y="860" as="targetPoint" />
          </mxGeometry>
        </mxCell>
        <mxCell id="PiTE5--tQV9tFxWihUPI-67" value="" style="endArrow=classic;startArrow=classic;html=1;rounded=0;exitX=0;exitY=0.5;exitDx=0;exitDy=0;" edge="1" parent="1" source="PiTE5--tQV9tFxWihUPI-41" target="PiTE5--tQV9tFxWihUPI-48">
          <mxGeometry width="50" height="50" relative="1" as="geometry">
            <mxPoint x="190" y="910" as="sourcePoint" />
            <mxPoint x="320" y="910" as="targetPoint" />
          </mxGeometry>
        </mxCell>
        <mxCell id="PiTE5--tQV9tFxWihUPI-68" value="" style="endArrow=classic;startArrow=classic;html=1;rounded=0;exitX=0;exitY=0.5;exitDx=0;exitDy=0;entryX=1;entryY=0.5;entryDx=0;entryDy=0;" edge="1" parent="1" source="PiTE5--tQV9tFxWihUPI-44" target="PiTE5--tQV9tFxWihUPI-41">
          <mxGeometry width="50" height="50" relative="1" as="geometry">
            <mxPoint x="630" y="760" as="sourcePoint" />
            <mxPoint x="590" y="762" as="targetPoint" />
          </mxGeometry>
        </mxCell>
        <mxCell id="PiTE5--tQV9tFxWihUPI-69" value="" style="endArrow=classic;startArrow=classic;html=1;rounded=0;exitX=0.5;exitY=0;exitDx=0;exitDy=0;entryX=0.5;entryY=1;entryDx=0;entryDy=0;" edge="1" parent="1" source="PiTE5--tQV9tFxWihUPI-41" target="PiTE5--tQV9tFxWihUPI-42">
          <mxGeometry width="50" height="50" relative="1" as="geometry">
            <mxPoint x="600" y="760" as="sourcePoint" />
            <mxPoint x="560" y="762" as="targetPoint" />
          </mxGeometry>
        </mxCell>
        <mxCell id="PiTE5--tQV9tFxWihUPI-45" value="Admin" style="html=1;dropTarget=0;whiteSpace=wrap;" vertex="1" parent="1">
          <mxGeometry x="270" y="750" width="90" height="40" as="geometry" />
        </mxCell>
        <mxCell id="PiTE5--tQV9tFxWihUPI-46" value="Category manager" style="html=1;dropTarget=0;whiteSpace=wrap;" vertex="1" parent="1">
          <mxGeometry x="270" y="810" width="90" height="40" as="geometry" />
        </mxCell>
        <mxCell id="PiTE5--tQV9tFxWihUPI-47" value="Budget Manager" style="html=1;dropTarget=0;whiteSpace=wrap;" vertex="1" parent="1">
          <mxGeometry x="270" y="870" width="90" height="40" as="geometry" />
        </mxCell>
        <mxCell id="PiTE5--tQV9tFxWihUPI-48" value="" style="html=1;dropTarget=0;whiteSpace=wrap;dashed=1;dashPattern=1 2;fillColor=none;" vertex="1" parent="1">
          <mxGeometry x="230" y="720" width="170" height="230" as="geometry" />
        </mxCell>
        <mxCell id="PiTE5--tQV9tFxWihUPI-72" value="BE" style="shape=umlFrame;whiteSpace=wrap;html=1;pointerEvents=0;dashed=1;dashPattern=12 12;" vertex="1" parent="1">
          <mxGeometry x="-110" y="640" width="700" height="370" as="geometry" />
        </mxCell>
      </root>
    </mxGraphModel>
  </diagram>
  <diagram name="Component_budget" id="LtqLlRG0IKnNZfoRj6yg">
    <mxGraphModel dx="2076" dy="620" grid="1" gridSize="10" guides="1" tooltips="1" connect="1" arrows="1" fold="1" page="1" pageScale="1" pageWidth="850" pageHeight="1100" math="0" shadow="0">
      <root>
        <mxCell id="ukpPQbRm8OWtSKZq8YgT-0" />
        <mxCell id="ukpPQbRm8OWtSKZq8YgT-1" parent="ukpPQbRm8OWtSKZq8YgT-0" />
        <mxCell id="ukpPQbRm8OWtSKZq8YgT-2" value="Database" style="html=1;dropTarget=0;whiteSpace=wrap;" vertex="1" parent="ukpPQbRm8OWtSKZq8YgT-1">
          <mxGeometry x="260" y="1000" width="90" height="40" as="geometry" />
        </mxCell>
        <mxCell id="ukpPQbRm8OWtSKZq8YgT-4" value="Gateway" style="html=1;dropTarget=0;whiteSpace=wrap;" vertex="1" parent="ukpPQbRm8OWtSKZq8YgT-1">
          <mxGeometry x="540" y="850" width="90" height="40" as="geometry" />
        </mxCell>
        <mxCell id="ukpPQbRm8OWtSKZq8YgT-5" value="" style="group" vertex="1" connectable="0" parent="ukpPQbRm8OWtSKZq8YgT-1">
          <mxGeometry x="-130" y="745" width="170" height="230" as="geometry" />
        </mxCell>
        <mxCell id="ukpPQbRm8OWtSKZq8YgT-6" value="Redis" style="html=1;dropTarget=0;whiteSpace=wrap;" vertex="1" parent="ukpPQbRm8OWtSKZq8YgT-5">
          <mxGeometry x="40" y="50" width="90" height="40" as="geometry" />
        </mxCell>
        <mxCell id="ukpPQbRm8OWtSKZq8YgT-7" value="Kafka" style="html=1;dropTarget=0;whiteSpace=wrap;" vertex="1" parent="ukpPQbRm8OWtSKZq8YgT-5">
          <mxGeometry x="40" y="120" width="90" height="40" as="geometry" />
        </mxCell>
        <mxCell id="ukpPQbRm8OWtSKZq8YgT-8" value="" style="html=1;dropTarget=0;whiteSpace=wrap;dashed=1;dashPattern=1 2;fillColor=none;" vertex="1" parent="ukpPQbRm8OWtSKZq8YgT-5">
          <mxGeometry width="170" height="230" as="geometry" />
        </mxCell>
        <mxCell id="ukpPQbRm8OWtSKZq8YgT-9" value="" style="endArrow=classic;startArrow=classic;html=1;rounded=0;entryX=0.004;entryY=0.495;entryDx=0;entryDy=0;entryPerimeter=0;" edge="1" parent="ukpPQbRm8OWtSKZq8YgT-1" source="ukpPQbRm8OWtSKZq8YgT-8" target="ukpPQbRm8OWtSKZq8YgT-17">
          <mxGeometry width="50" height="50" relative="1" as="geometry">
            <mxPoint x="240" y="910" as="sourcePoint" />
            <mxPoint x="230" y="835" as="targetPoint" />
          </mxGeometry>
        </mxCell>
        <mxCell id="ukpPQbRm8OWtSKZq8YgT-11" value="" style="endArrow=classic;startArrow=classic;html=1;rounded=0;exitX=0;exitY=0.5;exitDx=0;exitDy=0;entryX=1.005;entryY=0.515;entryDx=0;entryDy=0;entryPerimeter=0;" edge="1" parent="ukpPQbRm8OWtSKZq8YgT-1" source="ukpPQbRm8OWtSKZq8YgT-4" target="ukpPQbRm8OWtSKZq8YgT-17">
          <mxGeometry width="50" height="50" relative="1" as="geometry">
            <mxPoint x="630" y="760" as="sourcePoint" />
            <mxPoint x="590" y="762" as="targetPoint" />
          </mxGeometry>
        </mxCell>
        <mxCell id="ukpPQbRm8OWtSKZq8YgT-13" value="Plan" style="html=1;dropTarget=0;whiteSpace=wrap;" vertex="1" parent="ukpPQbRm8OWtSKZq8YgT-1">
          <mxGeometry x="270" y="750" width="90" height="40" as="geometry" />
        </mxCell>
        <mxCell id="ukpPQbRm8OWtSKZq8YgT-14" value="Adjustment" style="html=1;dropTarget=0;whiteSpace=wrap;" vertex="1" parent="ukpPQbRm8OWtSKZq8YgT-1">
          <mxGeometry x="270" y="810" width="90" height="40" as="geometry" />
        </mxCell>
        <mxCell id="ukpPQbRm8OWtSKZq8YgT-15" value="API Request" style="html=1;dropTarget=0;whiteSpace=wrap;" vertex="1" parent="ukpPQbRm8OWtSKZq8YgT-1">
          <mxGeometry x="270" y="870" width="90" height="40" as="geometry" />
        </mxCell>
        <mxCell id="ukpPQbRm8OWtSKZq8YgT-17" value="BE" style="shape=umlFrame;whiteSpace=wrap;html=1;pointerEvents=0;dashed=1;dashPattern=12 12;" vertex="1" parent="ukpPQbRm8OWtSKZq8YgT-1">
          <mxGeometry x="150" y="640" width="340" height="440" as="geometry" />
        </mxCell>
        <mxCell id="52Izovx3s6KG3NcUadd5-0" value="FE" style="html=1;dropTarget=0;whiteSpace=wrap;" vertex="1" parent="ukpPQbRm8OWtSKZq8YgT-1">
          <mxGeometry x="656" y="850" width="90" height="40" as="geometry" />
        </mxCell>
        <mxCell id="52Izovx3s6KG3NcUadd5-1" value="" style="endArrow=classic;startArrow=classic;html=1;rounded=0;exitX=0;exitY=0.5;exitDx=0;exitDy=0;entryX=1.005;entryY=0.515;entryDx=0;entryDy=0;entryPerimeter=0;" edge="1" parent="ukpPQbRm8OWtSKZq8YgT-1" source="52Izovx3s6KG3NcUadd5-0">
          <mxGeometry width="50" height="50" relative="1" as="geometry">
            <mxPoint x="666" y="800" as="sourcePoint" />
            <mxPoint x="630" y="871" as="targetPoint" />
          </mxGeometry>
        </mxCell>
        <mxCell id="52Izovx3s6KG3NcUadd5-6" value="" style="endArrow=classic;startArrow=classic;html=1;rounded=0;exitX=0.5;exitY=0;exitDx=0;exitDy=0;" edge="1" parent="ukpPQbRm8OWtSKZq8YgT-1" source="ukpPQbRm8OWtSKZq8YgT-2" target="52Izovx3s6KG3NcUadd5-5">
          <mxGeometry width="50" height="50" relative="1" as="geometry">
            <mxPoint x="270" y="990" as="sourcePoint" />
            <mxPoint x="400" y="831.5999999999999" as="targetPoint" />
          </mxGeometry>
        </mxCell>
        <mxCell id="52Izovx3s6KG3NcUadd5-5" value="" style="html=1;dropTarget=0;whiteSpace=wrap;dashed=1;dashPattern=1 2;fillColor=none;" vertex="1" parent="ukpPQbRm8OWtSKZq8YgT-1">
          <mxGeometry x="235" y="715" width="170" height="230" as="geometry" />
        </mxCell>
      </root>
    </mxGraphModel>
  </diagram>
  <diagram id="5mUOasHyAa-PRw7670m-" name="StateDiagram_plan">
    <mxGraphModel dx="1226" dy="620" grid="1" gridSize="10" guides="1" tooltips="1" connect="1" arrows="1" fold="1" page="1" pageScale="1" pageWidth="850" pageHeight="1100" math="0" shadow="0">
      <root>
        <mxCell id="0" />
        <mxCell id="1" parent="0" />
        <mxCell id="aswkoLmWonUaKwskK6zj-1" value="" style="ellipse;html=1;shape=startState;fillColor=#000000;strokeColor=#ff0000;rounded=1;shadow=0;comic=0;labelBackgroundColor=none;fontFamily=Verdana;fontSize=12;fontColor=#000000;align=center;direction=south;" vertex="1" parent="1">
          <mxGeometry x="80" y="185" width="30" height="30" as="geometry" />
        </mxCell>
        <mxCell id="aswkoLmWonUaKwskK6zj-3" value="01: create" style="rounded=1;whiteSpace=wrap;html=1;arcSize=24;fillColor=#ffffc0;strokeColor=#ff0000;shadow=0;comic=0;labelBackgroundColor=none;fontFamily=Verdana;fontSize=12;fontColor=#000000;align=center;" vertex="1" parent="1">
          <mxGeometry x="300" y="170" width="120" height="60" as="geometry" />
        </mxCell>
        <mxCell id="aswkoLmWonUaKwskK6zj-4" style="edgeStyle=orthogonalEdgeStyle;html=1;exitX=1;exitY=0.25;labelBackgroundColor=none;endArrow=open;endSize=8;strokeColor=#ff0000;fontFamily=Verdana;fontSize=12;align=left;curved=1;" edge="1" parent="1" source="aswkoLmWonUaKwskK6zj-5">
          <mxGeometry relative="1" as="geometry">
            <mxPoint x="480" y="340" as="targetPoint" />
          </mxGeometry>
        </mxCell>
        <mxCell id="aswkoLmWonUaKwskK6zj-5" value="02: submited" style="rounded=1;whiteSpace=wrap;html=1;arcSize=24;fillColor=#ffffc0;strokeColor=#ff0000;shadow=0;comic=0;labelBackgroundColor=none;fontFamily=Verdana;fontSize=12;fontColor=#000000;align=center;" vertex="1" parent="1">
          <mxGeometry x="305" y="300" width="120" height="60" as="geometry" />
        </mxCell>
        <mxCell id="aswkoLmWonUaKwskK6zj-10" value="create" style="edgeStyle=orthogonalEdgeStyle;html=1;labelBackgroundColor=none;endArrow=open;endSize=8;strokeColor=#ff0000;fontFamily=Verdana;fontSize=12;align=left;" edge="1" parent="1" source="aswkoLmWonUaKwskK6zj-1" target="aswkoLmWonUaKwskK6zj-3">
          <mxGeometry relative="1" as="geometry" />
        </mxCell>
        <mxCell id="aswkoLmWonUaKwskK6zj-11" value="Submit" style="edgeStyle=orthogonalEdgeStyle;html=1;labelBackgroundColor=none;endArrow=open;endSize=8;strokeColor=#ff0000;fontFamily=Verdana;fontSize=12;align=left;entryX=0.5;entryY=0;exitX=0.5;exitY=1;exitDx=0;exitDy=0;entryDx=0;entryDy=0;curved=1;" edge="1" parent="1" source="aswkoLmWonUaKwskK6zj-3" target="aswkoLmWonUaKwskK6zj-5">
          <mxGeometry relative="1" as="geometry" />
        </mxCell>
        <mxCell id="aswkoLmWonUaKwskK6zj-18" value="04: leader approve" style="rounded=1;whiteSpace=wrap;html=1;arcSize=24;fillColor=#ffffc0;strokeColor=#ff0000;shadow=0;comic=0;labelBackgroundColor=none;fontFamily=Verdana;fontSize=12;fontColor=#000000;align=center;" vertex="1" parent="1">
          <mxGeometry x="300" y="400" width="120" height="60" as="geometry" />
        </mxCell>
        <mxCell id="aswkoLmWonUaKwskK6zj-19" value="06: Financial Specialist approve" style="rounded=1;whiteSpace=wrap;html=1;arcSize=24;fillColor=#ffffc0;strokeColor=#ff0000;shadow=0;comic=0;labelBackgroundColor=none;fontFamily=Verdana;fontSize=12;fontColor=#000000;align=center;" vertex="1" parent="1">
          <mxGeometry x="310" y="490" width="120" height="60" as="geometry" />
        </mxCell>
        <mxCell id="aswkoLmWonUaKwskK6zj-20" value="08: Financial Leader approve&lt;br&gt;- ADDED to balance" style="rounded=1;whiteSpace=wrap;html=1;arcSize=24;fillColor=#ffffc0;strokeColor=#ff0000;shadow=0;comic=0;labelBackgroundColor=none;fontFamily=Verdana;fontSize=12;fontColor=#000000;align=center;" vertex="1" parent="1">
          <mxGeometry x="305" y="610" width="120" height="60" as="geometry" />
        </mxCell>
        <mxCell id="aswkoLmWonUaKwskK6zj-22" style="edgeStyle=orthogonalEdgeStyle;html=1;labelBackgroundColor=none;endArrow=open;endSize=8;strokeColor=#ff0000;fontFamily=Verdana;fontSize=12;align=left;entryX=0.5;entryY=0;exitX=0.5;exitY=1;exitDx=0;exitDy=0;entryDx=0;entryDy=0;" edge="1" parent="1" source="aswkoLmWonUaKwskK6zj-5" target="aswkoLmWonUaKwskK6zj-18">
          <mxGeometry relative="1" as="geometry">
            <Array as="points">
              <mxPoint x="360" y="360" />
            </Array>
            <mxPoint x="250" y="290" as="sourcePoint" />
            <mxPoint x="285" y="360" as="targetPoint" />
          </mxGeometry>
        </mxCell>
        <mxCell id="aswkoLmWonUaKwskK6zj-23" value="03: Leader reject" style="rounded=1;whiteSpace=wrap;html=1;arcSize=24;fillColor=#ffffc0;strokeColor=#ff0000;shadow=0;comic=0;labelBackgroundColor=none;fontFamily=Verdana;fontSize=12;fontColor=#000000;align=center;" vertex="1" parent="1">
          <mxGeometry x="480" y="310" width="120" height="60" as="geometry" />
        </mxCell>
        <mxCell id="aswkoLmWonUaKwskK6zj-24" value="05: Financial Specialist reject" style="rounded=1;whiteSpace=wrap;html=1;arcSize=24;fillColor=#ffffc0;strokeColor=#ff0000;shadow=0;comic=0;labelBackgroundColor=none;fontFamily=Verdana;fontSize=12;fontColor=#000000;align=center;" vertex="1" parent="1">
          <mxGeometry x="480" y="400" width="120" height="60" as="geometry" />
        </mxCell>
        <mxCell id="aswkoLmWonUaKwskK6zj-25" style="edgeStyle=orthogonalEdgeStyle;html=1;labelBackgroundColor=none;endArrow=open;endSize=8;strokeColor=#ff0000;fontFamily=Verdana;fontSize=12;align=left;exitX=0.5;exitY=1;exitDx=0;exitDy=0;curved=1;" edge="1" parent="1" source="aswkoLmWonUaKwskK6zj-18" target="aswkoLmWonUaKwskK6zj-19">
          <mxGeometry relative="1" as="geometry">
            <mxPoint x="225" y="450" as="sourcePoint" />
            <mxPoint x="220" y="490" as="targetPoint" />
          </mxGeometry>
        </mxCell>
        <mxCell id="aswkoLmWonUaKwskK6zj-26" style="edgeStyle=orthogonalEdgeStyle;html=1;labelBackgroundColor=none;endArrow=open;endSize=8;strokeColor=#ff0000;fontFamily=Verdana;fontSize=12;align=left;curved=1;" edge="1" parent="1" source="aswkoLmWonUaKwskK6zj-18" target="aswkoLmWonUaKwskK6zj-24">
          <mxGeometry relative="1" as="geometry">
            <mxPoint x="640" y="520" as="sourcePoint" />
            <mxPoint x="695" y="545" as="targetPoint" />
          </mxGeometry>
        </mxCell>
        <mxCell id="aswkoLmWonUaKwskK6zj-27" style="edgeStyle=orthogonalEdgeStyle;html=1;labelBackgroundColor=none;endArrow=open;endSize=8;strokeColor=#ff0000;fontFamily=Verdana;fontSize=12;align=left;entryX=0;entryY=0.5;entryDx=0;entryDy=0;curved=1;" edge="1" parent="1" source="aswkoLmWonUaKwskK6zj-19" target="aswkoLmWonUaKwskK6zj-28">
          <mxGeometry relative="1" as="geometry">
            <mxPoint x="510" y="540" as="sourcePoint" />
            <mxPoint x="565" y="565" as="targetPoint" />
          </mxGeometry>
        </mxCell>
        <mxCell id="aswkoLmWonUaKwskK6zj-28" value="07: Financial Leader reject" style="rounded=1;whiteSpace=wrap;html=1;arcSize=24;fillColor=#ffffc0;strokeColor=#ff0000;shadow=0;comic=0;labelBackgroundColor=none;fontFamily=Verdana;fontSize=12;fontColor=#000000;align=center;" vertex="1" parent="1">
          <mxGeometry x="480" y="500" width="120" height="60" as="geometry" />
        </mxCell>
        <mxCell id="cpk0TuZhw2Bd89RE7At9-3" value="" style="edgeStyle=orthogonalEdgeStyle;rounded=0;orthogonalLoop=1;jettySize=auto;html=1;entryX=0.5;entryY=0;entryDx=0;entryDy=0;" edge="1" parent="1" source="aswkoLmWonUaKwskK6zj-29" target="cpk0TuZhw2Bd89RE7At9-1">
          <mxGeometry relative="1" as="geometry">
            <mxPoint x="710" y="640" as="targetPoint" />
          </mxGeometry>
        </mxCell>
        <mxCell id="aswkoLmWonUaKwskK6zj-29" value="09: cancel" style="rounded=1;whiteSpace=wrap;html=1;arcSize=24;fillColor=#ffffc0;strokeColor=#ff0000;shadow=0;comic=0;labelBackgroundColor=none;fontFamily=Verdana;fontSize=12;fontColor=#000000;align=center;" vertex="1" parent="1">
          <mxGeometry x="480" y="610" width="120" height="60" as="geometry" />
        </mxCell>
        <mxCell id="aswkoLmWonUaKwskK6zj-30" style="edgeStyle=orthogonalEdgeStyle;html=1;labelBackgroundColor=none;endArrow=open;endSize=8;strokeColor=#ff0000;fontFamily=Verdana;fontSize=12;align=left;exitX=1;exitY=0.5;exitDx=0;exitDy=0;" edge="1" parent="1" source="aswkoLmWonUaKwskK6zj-20" target="aswkoLmWonUaKwskK6zj-29">
          <mxGeometry relative="1" as="geometry">
            <mxPoint x="440" y="610" as="sourcePoint" />
            <mxPoint x="490" y="620" as="targetPoint" />
          </mxGeometry>
        </mxCell>
        <mxCell id="aswkoLmWonUaKwskK6zj-31" style="edgeStyle=orthogonalEdgeStyle;html=1;labelBackgroundColor=none;endArrow=open;endSize=8;strokeColor=#ff0000;fontFamily=Verdana;fontSize=12;align=left;curved=1;" edge="1" parent="1" source="aswkoLmWonUaKwskK6zj-19" target="aswkoLmWonUaKwskK6zj-20">
          <mxGeometry relative="1" as="geometry">
            <mxPoint x="365" y="590" as="sourcePoint" />
            <mxPoint x="360" y="630" as="targetPoint" />
          </mxGeometry>
        </mxCell>
        <mxCell id="aswkoLmWonUaKwskK6zj-32" style="edgeStyle=orthogonalEdgeStyle;html=1;exitX=1;exitY=0.5;labelBackgroundColor=none;endArrow=open;endSize=8;strokeColor=#006600;fontFamily=Verdana;fontSize=12;align=left;exitDx=0;exitDy=0;entryX=1;entryY=0.5;entryDx=0;entryDy=0;dashed=1;dashPattern=1 2;" edge="1" parent="1" source="aswkoLmWonUaKwskK6zj-28" target="aswkoLmWonUaKwskK6zj-3">
          <mxGeometry relative="1" as="geometry">
            <mxPoint x="710" y="540" as="sourcePoint" />
            <mxPoint x="765" y="565" as="targetPoint" />
          </mxGeometry>
        </mxCell>
        <mxCell id="aswkoLmWonUaKwskK6zj-33" style="edgeStyle=orthogonalEdgeStyle;html=1;exitX=1;exitY=0.5;labelBackgroundColor=none;endArrow=open;endSize=8;strokeColor=#ff0000;fontFamily=Verdana;fontSize=12;align=left;exitDx=0;exitDy=0;entryX=1;entryY=0.5;entryDx=0;entryDy=0;dashed=1;dashPattern=8 8;" edge="1" parent="1" source="aswkoLmWonUaKwskK6zj-24" target="aswkoLmWonUaKwskK6zj-3">
          <mxGeometry relative="1" as="geometry">
            <mxPoint x="840" y="730" as="sourcePoint" />
            <mxPoint x="660" y="400" as="targetPoint" />
          </mxGeometry>
        </mxCell>
        <mxCell id="aswkoLmWonUaKwskK6zj-34" style="edgeStyle=orthogonalEdgeStyle;html=1;exitX=1;exitY=0.5;labelBackgroundColor=none;endArrow=open;endSize=8;strokeColor=#0000CC;fontFamily=Verdana;fontSize=12;align=left;exitDx=0;exitDy=0;dashed=1;" edge="1" parent="1" source="aswkoLmWonUaKwskK6zj-23">
          <mxGeometry relative="1" as="geometry">
            <mxPoint x="800" y="500" as="sourcePoint" />
            <mxPoint x="420" y="200" as="targetPoint" />
            <Array as="points">
              <mxPoint x="610" y="340" />
              <mxPoint x="610" y="200" />
            </Array>
          </mxGeometry>
        </mxCell>
        <mxCell id="cpk0TuZhw2Bd89RE7At9-1" value="" style="ellipse;html=1;shape=endState;fillColor=#000000;strokeColor=#ff0000;" vertex="1" parent="1">
          <mxGeometry x="680" y="710" width="30" height="30" as="geometry" />
        </mxCell>
        <mxCell id="cpk0TuZhw2Bd89RE7At9-4" value="" style="edgeStyle=orthogonalEdgeStyle;rounded=0;orthogonalLoop=1;jettySize=auto;html=1;entryX=0;entryY=0.5;entryDx=0;entryDy=0;exitX=0.5;exitY=1;exitDx=0;exitDy=0;" edge="1" parent="1" source="aswkoLmWonUaKwskK6zj-20" target="cpk0TuZhw2Bd89RE7At9-1">
          <mxGeometry relative="1" as="geometry">
            <mxPoint x="400" y="740" as="sourcePoint" />
            <mxPoint x="495" y="810" as="targetPoint" />
          </mxGeometry>
        </mxCell>
      </root>
    </mxGraphModel>
  </diagram>
  <diagram id="lVj_Lt9I7hBeuqtzLg1n" name="StateDiagram_adjustment">
    <mxGraphModel dx="1489" dy="753" grid="1" gridSize="10" guides="1" tooltips="1" connect="1" arrows="1" fold="1" page="1" pageScale="1" pageWidth="850" pageHeight="1100" math="0" shadow="0">
      <root>
        <mxCell id="0" />
        <mxCell id="1" parent="0" />
        <mxCell id="lZCsvXVGbogKaglzy2gI-1" value="" style="ellipse;html=1;shape=startState;fillColor=#60a917;strokeColor=#2D7600;rounded=1;shadow=0;comic=0;labelBackgroundColor=none;fontFamily=Verdana;fontSize=12;align=center;direction=south;fontColor=#ffffff;" vertex="1" parent="1">
          <mxGeometry x="100" y="105" width="30" height="30" as="geometry" />
        </mxCell>
        <mxCell id="lZCsvXVGbogKaglzy2gI-2" value="A01" style="rounded=1;whiteSpace=wrap;html=1;arcSize=24;fillColor=#60a917;strokeColor=#2D7600;shadow=0;comic=0;labelBackgroundColor=none;fontFamily=Verdana;fontSize=12;align=center;fontColor=#ffffff;" vertex="1" parent="1">
          <mxGeometry x="320" y="90" width="120" height="60" as="geometry" />
        </mxCell>
        <mxCell id="lZCsvXVGbogKaglzy2gI-3" style="edgeStyle=orthogonalEdgeStyle;html=1;exitX=1;exitY=0.5;labelBackgroundColor=none;endArrow=open;endSize=8;strokeColor=#2D7600;fontFamily=Verdana;fontSize=12;align=left;exitDx=0;exitDy=0;entryX=0;entryY=0.5;entryDx=0;entryDy=0;fillColor=#60a917;" edge="1" parent="1" source="lZCsvXVGbogKaglzy2gI-4" target="lZCsvXVGbogKaglzy2gI-11">
          <mxGeometry relative="1" as="geometry">
            <mxPoint x="500" y="260" as="targetPoint" />
          </mxGeometry>
        </mxCell>
        <mxCell id="lZCsvXVGbogKaglzy2gI-4" value="A02" style="rounded=1;whiteSpace=wrap;html=1;arcSize=24;fillColor=#60a917;strokeColor=#2D7600;shadow=0;comic=0;labelBackgroundColor=none;fontFamily=Verdana;fontSize=12;align=center;fontColor=#ffffff;" vertex="1" parent="1">
          <mxGeometry x="320" y="220" width="120" height="60" as="geometry" />
        </mxCell>
        <mxCell id="lZCsvXVGbogKaglzy2gI-6" value="Submit" style="edgeStyle=orthogonalEdgeStyle;html=1;labelBackgroundColor=none;endArrow=open;endSize=8;strokeColor=#2D7600;fontFamily=Verdana;fontSize=12;align=left;entryX=0.5;entryY=0;exitX=0.5;exitY=1;exitDx=0;exitDy=0;entryDx=0;entryDy=0;fillColor=#60a917;" edge="1" parent="1" source="lZCsvXVGbogKaglzy2gI-2" target="lZCsvXVGbogKaglzy2gI-4">
          <mxGeometry relative="1" as="geometry" />
        </mxCell>
        <mxCell id="lZCsvXVGbogKaglzy2gI-7" value="A04" style="rounded=1;whiteSpace=wrap;html=1;arcSize=24;fillColor=#60a917;strokeColor=#2D7600;shadow=0;comic=0;labelBackgroundColor=none;fontFamily=Verdana;fontSize=12;align=center;fontColor=#ffffff;" vertex="1" parent="1">
          <mxGeometry x="320" y="320" width="120" height="60" as="geometry" />
        </mxCell>
        <mxCell id="lZCsvXVGbogKaglzy2gI-8" value="A06" style="rounded=1;whiteSpace=wrap;html=1;arcSize=24;fillColor=#60a917;strokeColor=#2D7600;shadow=0;comic=0;labelBackgroundColor=none;fontFamily=Verdana;fontSize=12;align=center;fontColor=#ffffff;" vertex="1" parent="1">
          <mxGeometry x="320" y="420" width="120" height="60" as="geometry" />
        </mxCell>
        <mxCell id="lZCsvXVGbogKaglzy2gI-10" style="edgeStyle=orthogonalEdgeStyle;html=1;labelBackgroundColor=none;endArrow=open;endSize=8;strokeColor=#2D7600;fontFamily=Verdana;fontSize=12;align=left;entryX=0.5;entryY=0;exitX=0.5;exitY=1;exitDx=0;exitDy=0;entryDx=0;entryDy=0;fillColor=#60a917;" edge="1" parent="1" source="lZCsvXVGbogKaglzy2gI-4" target="lZCsvXVGbogKaglzy2gI-7">
          <mxGeometry relative="1" as="geometry">
            <Array as="points">
              <mxPoint x="380" y="280" />
            </Array>
            <mxPoint x="270" y="210" as="sourcePoint" />
            <mxPoint x="305" y="280" as="targetPoint" />
          </mxGeometry>
        </mxCell>
        <mxCell id="lZCsvXVGbogKaglzy2gI-11" value="A03" style="rounded=1;whiteSpace=wrap;html=1;arcSize=24;fillColor=#60a917;strokeColor=#2D7600;shadow=0;comic=0;labelBackgroundColor=none;fontFamily=Verdana;fontSize=12;align=center;fontColor=#ffffff;" vertex="1" parent="1">
          <mxGeometry x="580" y="220" width="120" height="60" as="geometry" />
        </mxCell>
        <mxCell id="lZCsvXVGbogKaglzy2gI-12" value="A05" style="rounded=1;whiteSpace=wrap;html=1;arcSize=24;fillColor=#60a917;strokeColor=#2D7600;shadow=0;comic=0;labelBackgroundColor=none;fontFamily=Verdana;fontSize=12;align=center;fontColor=#ffffff;" vertex="1" parent="1">
          <mxGeometry x="590" y="320" width="120" height="60" as="geometry" />
        </mxCell>
        <mxCell id="lZCsvXVGbogKaglzy2gI-13" style="edgeStyle=orthogonalEdgeStyle;html=1;labelBackgroundColor=none;endArrow=open;endSize=8;strokeColor=#2D7600;fontFamily=Verdana;fontSize=12;align=left;exitX=0.5;exitY=1;exitDx=0;exitDy=0;curved=1;fillColor=#60a917;" edge="1" parent="1" source="lZCsvXVGbogKaglzy2gI-7" target="lZCsvXVGbogKaglzy2gI-8">
          <mxGeometry relative="1" as="geometry">
            <mxPoint x="245" y="370" as="sourcePoint" />
            <mxPoint x="240" y="410" as="targetPoint" />
          </mxGeometry>
        </mxCell>
        <mxCell id="lZCsvXVGbogKaglzy2gI-14" style="edgeStyle=orthogonalEdgeStyle;html=1;labelBackgroundColor=none;endArrow=open;endSize=8;strokeColor=#2D7600;fontFamily=Verdana;fontSize=12;align=left;entryX=0;entryY=0.5;entryDx=0;entryDy=0;fillColor=#60a917;" edge="1" parent="1" source="lZCsvXVGbogKaglzy2gI-7" target="lZCsvXVGbogKaglzy2gI-12">
          <mxGeometry relative="1" as="geometry">
            <mxPoint x="660" y="440" as="sourcePoint" />
            <mxPoint x="715" y="465" as="targetPoint" />
          </mxGeometry>
        </mxCell>
        <mxCell id="lZCsvXVGbogKaglzy2gI-15" style="edgeStyle=orthogonalEdgeStyle;html=1;labelBackgroundColor=none;endArrow=open;endSize=8;strokeColor=#2D7600;fontFamily=Verdana;fontSize=12;align=left;entryX=0;entryY=0.5;entryDx=0;entryDy=0;curved=1;fillColor=#60a917;" edge="1" parent="1" source="lZCsvXVGbogKaglzy2gI-8" target="lZCsvXVGbogKaglzy2gI-16">
          <mxGeometry relative="1" as="geometry">
            <mxPoint x="530" y="460" as="sourcePoint" />
            <mxPoint x="585" y="485" as="targetPoint" />
          </mxGeometry>
        </mxCell>
        <mxCell id="lZCsvXVGbogKaglzy2gI-16" value="A07" style="rounded=1;whiteSpace=wrap;html=1;arcSize=24;fillColor=#60a917;strokeColor=#2D7600;shadow=0;comic=0;labelBackgroundColor=none;fontFamily=Verdana;fontSize=12;align=center;fontColor=#ffffff;" vertex="1" parent="1">
          <mxGeometry x="590" y="420" width="120" height="60" as="geometry" />
        </mxCell>
        <mxCell id="lZCsvXVGbogKaglzy2gI-21" style="edgeStyle=orthogonalEdgeStyle;html=1;exitX=1;exitY=0.5;labelBackgroundColor=none;endArrow=open;endSize=8;strokeColor=#2D7600;fontFamily=Verdana;fontSize=12;align=left;exitDx=0;exitDy=0;entryX=1;entryY=0.5;entryDx=0;entryDy=0;dashed=1;dashPattern=1 2;fillColor=#60a917;" edge="1" parent="1" source="lZCsvXVGbogKaglzy2gI-16" target="lZCsvXVGbogKaglzy2gI-2">
          <mxGeometry relative="1" as="geometry">
            <mxPoint x="730" y="460" as="sourcePoint" />
            <mxPoint x="785" y="485" as="targetPoint" />
            <Array as="points">
              <mxPoint x="770" y="450" />
              <mxPoint x="770" y="120" />
            </Array>
          </mxGeometry>
        </mxCell>
        <mxCell id="lZCsvXVGbogKaglzy2gI-22" style="edgeStyle=orthogonalEdgeStyle;html=1;exitX=1;exitY=0.5;labelBackgroundColor=none;endArrow=open;endSize=8;strokeColor=#2D7600;fontFamily=Verdana;fontSize=12;align=left;exitDx=0;exitDy=0;entryX=1;entryY=0.5;entryDx=0;entryDy=0;dashed=1;dashPattern=8 8;fillColor=#60a917;" edge="1" parent="1" source="lZCsvXVGbogKaglzy2gI-12" target="lZCsvXVGbogKaglzy2gI-2">
          <mxGeometry relative="1" as="geometry">
            <mxPoint x="860" y="650" as="sourcePoint" />
            <mxPoint x="680" y="320" as="targetPoint" />
            <Array as="points">
              <mxPoint x="770" y="350" />
              <mxPoint x="770" y="120" />
            </Array>
          </mxGeometry>
        </mxCell>
        <mxCell id="lZCsvXVGbogKaglzy2gI-23" style="edgeStyle=orthogonalEdgeStyle;html=1;exitX=1;exitY=0.5;labelBackgroundColor=none;endArrow=open;endSize=8;strokeColor=#2D7600;fontFamily=Verdana;fontSize=12;align=left;exitDx=0;exitDy=0;dashed=1;fillColor=#60a917;" edge="1" parent="1" source="lZCsvXVGbogKaglzy2gI-11">
          <mxGeometry relative="1" as="geometry">
            <mxPoint x="820" y="420" as="sourcePoint" />
            <mxPoint x="440" y="120" as="targetPoint" />
            <Array as="points">
              <mxPoint x="770" y="250" />
              <mxPoint x="770" y="120" />
            </Array>
          </mxGeometry>
        </mxCell>
        <mxCell id="lZCsvXVGbogKaglzy2gI-27" value="B01" style="rounded=1;whiteSpace=wrap;html=1;arcSize=24;fillColor=#dae8fc;strokeColor=#6c8ebf;shadow=0;comic=0;labelBackgroundColor=none;fontFamily=Verdana;fontSize=12;align=center;gradientColor=#7ea6e0;" vertex="1" parent="1">
          <mxGeometry x="310" y="590" width="120" height="60" as="geometry" />
        </mxCell>
        <mxCell id="lZCsvXVGbogKaglzy2gI-28" value="RV" style="edgeStyle=orthogonalEdgeStyle;html=1;exitX=1;exitY=0.5;labelBackgroundColor=none;endArrow=open;endSize=8;strokeColor=#6c8ebf;fontFamily=Verdana;fontSize=12;align=left;exitDx=0;exitDy=0;entryX=0;entryY=0.5;entryDx=0;entryDy=0;fillColor=#dae8fc;gradientColor=#7ea6e0;" edge="1" parent="1" source="lZCsvXVGbogKaglzy2gI-29" target="lZCsvXVGbogKaglzy2gI-34">
          <mxGeometry relative="1" as="geometry">
            <mxPoint x="490" y="760" as="targetPoint" />
          </mxGeometry>
        </mxCell>
        <mxCell id="lZCsvXVGbogKaglzy2gI-29" value="B02" style="rounded=1;whiteSpace=wrap;html=1;arcSize=24;fillColor=#dae8fc;strokeColor=#6c8ebf;shadow=0;comic=0;labelBackgroundColor=none;fontFamily=Verdana;fontSize=12;align=center;gradientColor=#7ea6e0;" vertex="1" parent="1">
          <mxGeometry x="310" y="720" width="120" height="60" as="geometry" />
        </mxCell>
        <mxCell id="lZCsvXVGbogKaglzy2gI-30" value="Submit, HOLD" style="edgeStyle=orthogonalEdgeStyle;html=1;labelBackgroundColor=none;endArrow=open;endSize=8;strokeColor=#6c8ebf;fontFamily=Verdana;fontSize=12;align=left;entryX=0.5;entryY=0;exitX=0.5;exitY=1;exitDx=0;exitDy=0;entryDx=0;entryDy=0;fillColor=#dae8fc;gradientColor=#7ea6e0;" edge="1" parent="1" source="lZCsvXVGbogKaglzy2gI-27" target="lZCsvXVGbogKaglzy2gI-29">
          <mxGeometry relative="1" as="geometry" />
        </mxCell>
        <mxCell id="lZCsvXVGbogKaglzy2gI-31" value="B04" style="rounded=1;whiteSpace=wrap;html=1;arcSize=24;fillColor=#dae8fc;strokeColor=#6c8ebf;shadow=0;comic=0;labelBackgroundColor=none;fontFamily=Verdana;fontSize=12;align=center;gradientColor=#7ea6e0;" vertex="1" parent="1">
          <mxGeometry x="310" y="820" width="120" height="60" as="geometry" />
        </mxCell>
        <mxCell id="lZCsvXVGbogKaglzy2gI-44" value="RV GAP" style="edgeStyle=orthogonalEdgeStyle;rounded=0;orthogonalLoop=1;jettySize=auto;html=1;entryX=0;entryY=0.5;entryDx=0;entryDy=0;dashed=1;fillColor=#dae8fc;gradientColor=#7ea6e0;strokeColor=#6c8ebf;" edge="1" parent="1" source="lZCsvXVGbogKaglzy2gI-32" target="lZCsvXVGbogKaglzy2gI-31">
          <mxGeometry relative="1" as="geometry">
            <mxPoint x="230" y="950" as="targetPoint" />
            <Array as="points">
              <mxPoint x="200" y="950" />
              <mxPoint x="200" y="850" />
            </Array>
          </mxGeometry>
        </mxCell>
        <mxCell id="lZCsvXVGbogKaglzy2gI-32" value="B06" style="rounded=1;whiteSpace=wrap;html=1;arcSize=24;fillColor=#dae8fc;strokeColor=#6c8ebf;shadow=0;comic=0;labelBackgroundColor=none;fontFamily=Verdana;fontSize=12;align=center;gradientColor=#7ea6e0;" vertex="1" parent="1">
          <mxGeometry x="310" y="920" width="120" height="60" as="geometry" />
        </mxCell>
        <mxCell id="lZCsvXVGbogKaglzy2gI-33" style="edgeStyle=orthogonalEdgeStyle;html=1;labelBackgroundColor=none;endArrow=open;endSize=8;strokeColor=#6c8ebf;fontFamily=Verdana;fontSize=12;align=left;entryX=0.5;entryY=0;exitX=0.5;exitY=1;exitDx=0;exitDy=0;entryDx=0;entryDy=0;fillColor=#dae8fc;gradientColor=#7ea6e0;" edge="1" parent="1" source="lZCsvXVGbogKaglzy2gI-29" target="lZCsvXVGbogKaglzy2gI-31">
          <mxGeometry relative="1" as="geometry">
            <Array as="points">
              <mxPoint x="370" y="780" />
            </Array>
            <mxPoint x="260" y="710" as="sourcePoint" />
            <mxPoint x="295" y="780" as="targetPoint" />
          </mxGeometry>
        </mxCell>
        <mxCell id="lZCsvXVGbogKaglzy2gI-34" value="B03" style="rounded=1;whiteSpace=wrap;html=1;arcSize=24;fillColor=#dae8fc;strokeColor=#6c8ebf;shadow=0;comic=0;labelBackgroundColor=none;fontFamily=Verdana;fontSize=12;align=center;gradientColor=#7ea6e0;" vertex="1" parent="1">
          <mxGeometry x="570" y="720" width="120" height="60" as="geometry" />
        </mxCell>
        <mxCell id="lZCsvXVGbogKaglzy2gI-35" value="B05" style="rounded=1;whiteSpace=wrap;html=1;arcSize=24;fillColor=#dae8fc;strokeColor=#6c8ebf;shadow=0;comic=0;labelBackgroundColor=none;fontFamily=Verdana;fontSize=12;align=center;gradientColor=#7ea6e0;" vertex="1" parent="1">
          <mxGeometry x="580" y="820" width="120" height="60" as="geometry" />
        </mxCell>
        <mxCell id="lZCsvXVGbogKaglzy2gI-36" value="GAP" style="edgeStyle=orthogonalEdgeStyle;html=1;labelBackgroundColor=none;endArrow=open;endSize=8;strokeColor=#6c8ebf;fontFamily=Verdana;fontSize=12;align=left;exitX=0.5;exitY=1;exitDx=0;exitDy=0;curved=1;fillColor=#dae8fc;gradientColor=#7ea6e0;" edge="1" parent="1" source="lZCsvXVGbogKaglzy2gI-31" target="lZCsvXVGbogKaglzy2gI-32">
          <mxGeometry relative="1" as="geometry">
            <mxPoint x="235" y="870" as="sourcePoint" />
            <mxPoint x="230" y="910" as="targetPoint" />
          </mxGeometry>
        </mxCell>
        <mxCell id="lZCsvXVGbogKaglzy2gI-37" value="RV" style="edgeStyle=orthogonalEdgeStyle;html=1;labelBackgroundColor=none;endArrow=open;endSize=8;strokeColor=#6c8ebf;fontFamily=Verdana;fontSize=12;align=left;entryX=0;entryY=0.5;entryDx=0;entryDy=0;fillColor=#dae8fc;gradientColor=#7ea6e0;" edge="1" parent="1" source="lZCsvXVGbogKaglzy2gI-31" target="lZCsvXVGbogKaglzy2gI-35">
          <mxGeometry relative="1" as="geometry">
            <mxPoint x="650" y="940" as="sourcePoint" />
            <mxPoint x="705" y="965" as="targetPoint" />
          </mxGeometry>
        </mxCell>
        <mxCell id="lZCsvXVGbogKaglzy2gI-38" value="RV+RV GAP" style="edgeStyle=orthogonalEdgeStyle;html=1;labelBackgroundColor=none;endArrow=open;endSize=8;strokeColor=#6c8ebf;fontFamily=Verdana;fontSize=12;align=left;entryX=0;entryY=0.5;entryDx=0;entryDy=0;curved=1;fillColor=#dae8fc;gradientColor=#7ea6e0;" edge="1" parent="1" source="lZCsvXVGbogKaglzy2gI-32" target="lZCsvXVGbogKaglzy2gI-39">
          <mxGeometry relative="1" as="geometry">
            <mxPoint x="520" y="960" as="sourcePoint" />
            <mxPoint x="575" y="985" as="targetPoint" />
          </mxGeometry>
        </mxCell>
        <mxCell id="lZCsvXVGbogKaglzy2gI-39" value="B07" style="rounded=1;whiteSpace=wrap;html=1;arcSize=24;fillColor=#dae8fc;strokeColor=#6c8ebf;shadow=0;comic=0;labelBackgroundColor=none;fontFamily=Verdana;fontSize=12;align=center;gradientColor=#7ea6e0;" vertex="1" parent="1">
          <mxGeometry x="580" y="920" width="120" height="60" as="geometry" />
        </mxCell>
        <mxCell id="lZCsvXVGbogKaglzy2gI-40" style="edgeStyle=orthogonalEdgeStyle;html=1;exitX=1;exitY=0.5;labelBackgroundColor=none;endArrow=open;endSize=8;strokeColor=#6c8ebf;fontFamily=Verdana;fontSize=12;align=left;exitDx=0;exitDy=0;entryX=1;entryY=0.5;entryDx=0;entryDy=0;dashed=1;dashPattern=1 2;fillColor=#dae8fc;gradientColor=#7ea6e0;" edge="1" parent="1" source="lZCsvXVGbogKaglzy2gI-39" target="lZCsvXVGbogKaglzy2gI-27">
          <mxGeometry relative="1" as="geometry">
            <mxPoint x="720" y="960" as="sourcePoint" />
            <mxPoint x="775" y="985" as="targetPoint" />
            <Array as="points">
              <mxPoint x="760" y="950" />
              <mxPoint x="760" y="620" />
            </Array>
          </mxGeometry>
        </mxCell>
        <mxCell id="lZCsvXVGbogKaglzy2gI-41" style="edgeStyle=orthogonalEdgeStyle;html=1;exitX=1;exitY=0.5;labelBackgroundColor=none;endArrow=open;endSize=8;strokeColor=#6c8ebf;fontFamily=Verdana;fontSize=12;align=left;exitDx=0;exitDy=0;entryX=1;entryY=0.5;entryDx=0;entryDy=0;dashed=1;dashPattern=8 8;fillColor=#dae8fc;gradientColor=#7ea6e0;" edge="1" parent="1" source="lZCsvXVGbogKaglzy2gI-35" target="lZCsvXVGbogKaglzy2gI-27">
          <mxGeometry relative="1" as="geometry">
            <mxPoint x="850" y="1150" as="sourcePoint" />
            <mxPoint x="670" y="820" as="targetPoint" />
            <Array as="points">
              <mxPoint x="760" y="850" />
              <mxPoint x="760" y="620" />
            </Array>
          </mxGeometry>
        </mxCell>
        <mxCell id="lZCsvXVGbogKaglzy2gI-42" style="edgeStyle=orthogonalEdgeStyle;html=1;exitX=1;exitY=0.5;labelBackgroundColor=none;endArrow=open;endSize=8;strokeColor=#6c8ebf;fontFamily=Verdana;fontSize=12;align=left;exitDx=0;exitDy=0;dashed=1;fillColor=#dae8fc;gradientColor=#7ea6e0;" edge="1" parent="1" source="lZCsvXVGbogKaglzy2gI-34">
          <mxGeometry relative="1" as="geometry">
            <mxPoint x="810" y="920" as="sourcePoint" />
            <mxPoint x="430" y="620" as="targetPoint" />
            <Array as="points">
              <mxPoint x="760" y="750" />
              <mxPoint x="760" y="620" />
            </Array>
          </mxGeometry>
        </mxCell>
        <mxCell id="lZCsvXVGbogKaglzy2gI-46" value="" style="edgeStyle=orthogonalEdgeStyle;rounded=0;orthogonalLoop=1;jettySize=auto;html=1;entryX=0;entryY=0.5;entryDx=0;entryDy=0;dashed=1;exitX=0;exitY=0.5;exitDx=0;exitDy=0;fillColor=#60a917;strokeColor=#2D7600;" edge="1" parent="1" source="lZCsvXVGbogKaglzy2gI-8" target="lZCsvXVGbogKaglzy2gI-7">
          <mxGeometry relative="1" as="geometry">
            <mxPoint x="280" y="500" as="sourcePoint" />
            <mxPoint x="280" y="400" as="targetPoint" />
            <Array as="points">
              <mxPoint x="250" y="451" />
              <mxPoint x="250" y="351" />
            </Array>
          </mxGeometry>
        </mxCell>
        <mxCell id="lZCsvXVGbogKaglzy2gI-47" value="C01" style="rounded=1;whiteSpace=wrap;html=1;arcSize=24;fillColor=#0050ef;strokeColor=#001DBC;shadow=0;comic=0;labelBackgroundColor=none;fontFamily=Verdana;fontSize=12;align=center;fontColor=#ffffff;" vertex="1" parent="1">
          <mxGeometry x="310" y="1120" width="120" height="60" as="geometry" />
        </mxCell>
        <mxCell id="lZCsvXVGbogKaglzy2gI-48" value="RV" style="edgeStyle=orthogonalEdgeStyle;html=1;exitX=1;exitY=0.5;labelBackgroundColor=none;endArrow=open;endSize=8;strokeColor=#001DBC;fontFamily=Verdana;fontSize=12;align=left;exitDx=0;exitDy=0;entryX=0;entryY=0.5;entryDx=0;entryDy=0;fillColor=#0050ef;" edge="1" parent="1" source="lZCsvXVGbogKaglzy2gI-49" target="lZCsvXVGbogKaglzy2gI-55">
          <mxGeometry relative="1" as="geometry">
            <mxPoint x="490" y="1290" as="targetPoint" />
          </mxGeometry>
        </mxCell>
        <mxCell id="lZCsvXVGbogKaglzy2gI-49" value="C02" style="rounded=1;whiteSpace=wrap;html=1;arcSize=24;fillColor=#0050ef;strokeColor=#001DBC;shadow=0;comic=0;labelBackgroundColor=none;fontFamily=Verdana;fontSize=12;align=center;fontColor=#ffffff;" vertex="1" parent="1">
          <mxGeometry x="310" y="1250" width="120" height="60" as="geometry" />
        </mxCell>
        <mxCell id="lZCsvXVGbogKaglzy2gI-50" value="Submit, HOLD type DOWN" style="edgeStyle=orthogonalEdgeStyle;html=1;labelBackgroundColor=none;endArrow=open;endSize=8;strokeColor=#001DBC;fontFamily=Verdana;fontSize=12;align=left;entryX=0.5;entryY=0;exitX=0.5;exitY=1;exitDx=0;exitDy=0;entryDx=0;entryDy=0;fillColor=#0050ef;" edge="1" parent="1" source="lZCsvXVGbogKaglzy2gI-47" target="lZCsvXVGbogKaglzy2gI-49">
          <mxGeometry relative="1" as="geometry" />
        </mxCell>
        <mxCell id="lZCsvXVGbogKaglzy2gI-51" value="C04" style="rounded=1;whiteSpace=wrap;html=1;arcSize=24;fillColor=#0050ef;strokeColor=#001DBC;shadow=0;comic=0;labelBackgroundColor=none;fontFamily=Verdana;fontSize=12;align=center;fontColor=#ffffff;" vertex="1" parent="1">
          <mxGeometry x="310" y="1400" width="120" height="60" as="geometry" />
        </mxCell>
        <mxCell id="lZCsvXVGbogKaglzy2gI-54" value="HOLD UP, confirm, add to balance" style="edgeStyle=orthogonalEdgeStyle;html=1;labelBackgroundColor=none;endArrow=open;endSize=8;strokeColor=#001DBC;fontFamily=Verdana;fontSize=12;align=left;entryX=0.5;entryY=0;exitX=0.5;exitY=1;exitDx=0;exitDy=0;entryDx=0;entryDy=0;fillColor=#0050ef;" edge="1" parent="1" source="lZCsvXVGbogKaglzy2gI-49" target="lZCsvXVGbogKaglzy2gI-51">
          <mxGeometry relative="1" as="geometry">
            <Array as="points">
              <mxPoint x="370" y="1310" />
            </Array>
            <mxPoint x="260" y="1240" as="sourcePoint" />
            <mxPoint x="295" y="1310" as="targetPoint" />
          </mxGeometry>
        </mxCell>
        <mxCell id="lZCsvXVGbogKaglzy2gI-55" value="C03" style="rounded=1;whiteSpace=wrap;html=1;arcSize=24;fillColor=#0050ef;strokeColor=#001DBC;shadow=0;comic=0;labelBackgroundColor=none;fontFamily=Verdana;fontSize=12;align=center;fontColor=#ffffff;" vertex="1" parent="1">
          <mxGeometry x="570" y="1250" width="120" height="60" as="geometry" />
        </mxCell>
        <mxCell id="lZCsvXVGbogKaglzy2gI-63" style="edgeStyle=orthogonalEdgeStyle;html=1;exitX=1;exitY=0.5;labelBackgroundColor=none;endArrow=open;endSize=8;strokeColor=#001DBC;fontFamily=Verdana;fontSize=12;align=left;exitDx=0;exitDy=0;dashed=1;fillColor=#0050ef;" edge="1" parent="1" source="lZCsvXVGbogKaglzy2gI-55">
          <mxGeometry relative="1" as="geometry">
            <mxPoint x="810" y="1450" as="sourcePoint" />
            <mxPoint x="430" y="1150" as="targetPoint" />
            <Array as="points">
              <mxPoint x="760" y="1280" />
              <mxPoint x="760" y="1150" />
            </Array>
          </mxGeometry>
        </mxCell>
        <mxCell id="lZCsvXVGbogKaglzy2gI-66" style="edgeStyle=orthogonalEdgeStyle;html=1;labelBackgroundColor=none;endArrow=open;endSize=8;strokeColor=#2D7600;fontFamily=Verdana;fontSize=12;align=left;entryX=0;entryY=0.5;entryDx=0;entryDy=0;fillColor=#60a917;" edge="1" parent="1" source="lZCsvXVGbogKaglzy2gI-1" target="lZCsvXVGbogKaglzy2gI-2">
          <mxGeometry relative="1" as="geometry">
            <mxPoint x="300" y="160" as="targetPoint" />
            <mxPoint x="160" y="160" as="sourcePoint" />
          </mxGeometry>
        </mxCell>
        <mxCell id="lZCsvXVGbogKaglzy2gI-67" value="" style="edgeStyle=orthogonalEdgeStyle;html=1;labelBackgroundColor=none;endArrow=open;endSize=8;strokeColor=#6c8ebf;fontFamily=Verdana;fontSize=12;align=left;entryX=0.5;entryY=0;exitX=0.5;exitY=1;exitDx=0;exitDy=0;entryDx=0;entryDy=0;fillColor=#dae8fc;gradientColor=#7ea6e0;" edge="1" parent="1" source="lZCsvXVGbogKaglzy2gI-8" target="lZCsvXVGbogKaglzy2gI-27">
          <mxGeometry relative="1" as="geometry">
            <mxPoint x="350" y="510" as="sourcePoint" />
            <mxPoint x="350" y="580" as="targetPoint" />
          </mxGeometry>
        </mxCell>
        <mxCell id="lZCsvXVGbogKaglzy2gI-68" value="" style="edgeStyle=orthogonalEdgeStyle;html=1;labelBackgroundColor=none;endArrow=open;endSize=8;strokeColor=#82b366;fontFamily=Verdana;fontSize=12;align=left;entryX=0.5;entryY=0;exitX=0.5;exitY=1;exitDx=0;exitDy=0;entryDx=0;entryDy=0;fillColor=#d5e8d4;gradientColor=#97d077;curved=1;" edge="1" parent="1" source="lZCsvXVGbogKaglzy2gI-32" target="lZCsvXVGbogKaglzy2gI-47">
          <mxGeometry relative="1" as="geometry">
            <mxPoint x="350" y="990" as="sourcePoint" />
            <mxPoint x="350" y="1080" as="targetPoint" />
          </mxGeometry>
        </mxCell>
        <mxCell id="ogL9EBynGfTQICmcufrr-1" value="Request form" style="shape=umlFrame;whiteSpace=wrap;html=1;pointerEvents=0;dashed=1;dashPattern=12 12;" vertex="1" parent="1">
          <mxGeometry x="155" y="40" width="675" height="480" as="geometry" />
        </mxCell>
        <mxCell id="ogL9EBynGfTQICmcufrr-2" value="Accounting" style="shape=umlFrame;whiteSpace=wrap;html=1;pointerEvents=0;dashed=1;dashPattern=12 12;" vertex="1" parent="1">
          <mxGeometry x="155" y="1100" width="685" height="410" as="geometry" />
        </mxCell>
        <mxCell id="ogL9EBynGfTQICmcufrr-3" value="Adjustment" style="shape=umlFrame;whiteSpace=wrap;html=1;pointerEvents=0;dashed=1;dashPattern=12 12;" vertex="1" parent="1">
          <mxGeometry x="160" y="560" width="670" height="460" as="geometry" />
        </mxCell>
      </root>
    </mxGraphModel>
  </diagram>
</mxfile>
